<svg width="100" height="112" viewBox="0 0 100 112" fill="none" xmlns="http://www.w3.org/2000/svg">
<rect width="100" height="112" rx="6" fill="#F8961E"/>
<mask id="mask0_1902_3639" style="mask-type:alpha" maskUnits="userSpaceOnUse" x="0" y="0" width="100" height="112">
<rect width="100" height="112" rx="6" fill="#D9D9D9"/>
</mask>
<g mask="url(#mask0_1902_3639)">
<circle cx="47" cy="95" r="55" fill="white" fill-opacity="0.25"/>
<path d="M34.1994 56.7247C34.1994 60.5747 33.6632 63.1595 29.9095 63.9638C27.0221 63.9638 24.011 60.8428 24.011 56.9928C24.011 53.1428 25.8155 49.8877 28.703 49.8877C31.5905 49.8877 34.1994 52.8747 34.1994 56.7247Z" fill="#FFDFA2"/>
<g filter="url(#filter0_f_1902_3639)">
<path d="M28.5717 53.5074C27.0523 54.2671 24.9253 56.7516 28.5717 60.6125C27.4992 59.2272 25.9977 55.8668 28.5717 53.5074Z" fill="#4F4F4F" fill-opacity="0.3"/>
</g>
<path d="M28.3033 53.5074C26.784 54.2671 24.657 56.7516 28.3033 60.6125C27.2309 59.2272 25.7294 55.8668 28.3033 53.5074Z" fill="#4F4F4F" fill-opacity="0.75"/>
<path d="M64.6308 56.5905C64.6308 60.4405 65.167 63.0253 68.9207 63.8296C71.8081 63.8296 74.8192 60.7086 74.8192 56.8586C74.8192 53.0086 73.0147 49.7535 70.1272 49.7535C67.2397 49.7535 64.6308 52.7405 64.6308 56.5905Z" fill="#FFDFA2"/>
<g filter="url(#filter1_f_1902_3639)">
<path d="M70.2607 53.5071C71.7801 54.2667 73.9071 56.7513 70.2607 60.6122C71.3332 59.2269 72.8347 55.8665 70.2607 53.5071Z" fill="#4F4F4F" fill-opacity="0.3"/>
</g>
<path d="M70.5294 53.5071C72.0487 54.2667 74.1758 56.7513 70.5294 60.6122C71.6019 59.2269 73.1033 55.8665 70.5294 53.5071Z" fill="#4F4F4F" fill-opacity="0.75"/>
<rect x="41.8407" y="72.0073" width="16.3551" height="12.0652" fill="#F8DAA0"/>
<g filter="url(#filter2_d_1902_3639)">
<path d="M69.7247 55.9202C69.7247 67.9144 60.7817 77.6376 49.75 77.6376C38.7183 77.6376 29.7754 67.9144 29.7754 55.9202C29.7754 49.2684 32.3817 42.0362 37.6649 37.9946C40.9347 35.4932 45.3876 34.2028 49.75 34.2028C54.0987 34.2028 58.4559 35.3967 61.6497 37.8517C66.9688 41.9405 69.7247 49.2113 69.7247 55.9202Z" fill="#FFDFA2"/>
</g>
<mask id="mask1_1902_3639" style="mask-type:alpha" maskUnits="userSpaceOnUse" x="29" y="34" width="41" height="44">
<path d="M69.7247 55.9202C69.7247 67.9144 60.7817 77.6376 49.75 77.6376C38.7183 77.6376 29.7754 67.9144 29.7754 55.9202C29.7754 49.2684 32.3817 42.0362 37.6649 37.9946C40.9347 35.4932 45.3876 34.2028 49.75 34.2028C54.0987 34.2028 58.4559 35.3967 61.6497 37.8517C66.9688 41.9405 69.7247 49.2113 69.7247 55.9202Z" fill="#FFDFA2"/>
</mask>
<g mask="url(#mask1_1902_3639)">
<g filter="url(#filter3_f_1902_3639)">
<path d="M35.6738 48.4131C37.497 46.5899 38.3103 39.2525 38.489 35.8117C35.8078 37.0182 30.1774 40.2356 29.1049 43.453C27.7644 47.4747 28.1665 58.6015 29.1049 65.0363C29.8557 70.1842 37.64 75.4929 41.4383 77.5037C41.8405 73.2139 36.4781 64.0979 34.8694 61.953C33.2607 59.8081 33.3948 50.6921 35.6738 48.4131Z" fill="#7A7A7A" fill-opacity="0.05"/>
</g>
<g filter="url(#filter4_f_1902_3639)">
<path d="M63.4452 48.4131C61.622 46.5899 60.8088 39.2525 60.63 35.8117C63.3112 37.0182 68.9416 40.2356 70.0141 43.453C71.3547 47.4747 70.9525 58.6015 70.0141 65.0363C69.2633 70.1842 61.479 75.4929 57.6807 77.5037C57.2786 73.2139 62.6409 64.0979 64.2496 61.953C65.8583 59.8081 65.7242 50.6921 63.4452 48.4131Z" fill="#7A7A7A" fill-opacity="0.05"/>
</g>
</g>
<path d="M41.9745 67.7174C44.745 69.907 51.7607 71.3369 56.8549 67.7174C54.4419 70.8901 48.0875 75.3319 41.9745 67.7174Z" fill="#AB1E1E"/>
<path d="M34.946 49.499C34.9154 49.3462 34.9562 49.1878 35.057 49.0689L35.2191 48.8776C37.6009 46.0673 41.6218 45.3017 44.8697 47.0401L44.9531 47.0848C45.0852 47.1555 45.1788 47.2815 45.2083 47.4285C45.2918 47.8445 44.8535 48.17 44.4794 47.9698L44.2992 47.8733C41.5335 46.393 38.1095 47.0449 36.0813 49.438L35.8352 49.7284C35.5595 50.0538 35.03 49.9172 34.946 49.499Z" fill="black"/>
<path d="M64.9141 49.499C64.9447 49.3462 64.9039 49.1878 64.8031 49.0689L64.641 48.8776C62.2592 46.0673 58.2383 45.3017 54.9904 47.0401L54.907 47.0848C54.7749 47.1555 54.6813 47.2815 54.6518 47.4285C54.5683 47.8445 55.0066 48.17 55.3807 47.9698L55.5609 47.8733C58.3266 46.393 61.7506 47.0449 63.7788 49.438L64.0249 49.7284C64.3006 50.0538 64.8301 49.9172 64.9141 49.499Z" fill="black"/>
<path d="M51.0561 62.1366C51.0545 62.1838 51.0352 62.2287 51.0021 62.2623L50.9717 62.2931C50.0946 63.1824 48.64 63.1185 47.842 62.1576C47.8133 62.1231 47.7982 62.0792 47.7996 62.0343L47.8016 61.9751C47.8064 61.8269 47.9919 61.7633 48.0866 61.8773C48.7641 62.693 49.9976 62.7457 50.7422 61.9908L50.7755 61.9571C50.881 61.8502 51.0629 61.9282 51.058 62.0783L51.0561 62.1366Z" fill="#D2A182"/>
<ellipse cx="39.6956" cy="54.3115" rx="5.63044" ry="4.82609" fill="#696969"/>
<ellipse cx="39.6956" cy="54.5796" rx="5.63044" ry="4.82609" fill="white"/>
<ellipse cx="39.8296" cy="55.1159" rx="3.35145" ry="4.02174" fill="#252525"/>
<mask id="mask2_1902_3639" style="mask-type:alpha" maskUnits="userSpaceOnUse" x="36" y="51" width="8" height="9">
<ellipse cx="39.8296" cy="55.1159" rx="3.35145" ry="4.02174" fill="#696969"/>
</mask>
<g mask="url(#mask2_1902_3639)">
<circle cx="38.4891" cy="53.6412" r="1.20652" fill="white" fill-opacity="0.25"/>
<circle cx="37.4165" cy="55.518" r="0.402174" fill="white" fill-opacity="0.35"/>
</g>
<ellipse cx="59.5366" cy="54.3115" rx="5.63044" ry="4.82609" fill="#696969"/>
<ellipse cx="59.5362" cy="54.5796" rx="5.63044" ry="4.82609" fill="white"/>
<ellipse cx="59.6702" cy="55.1159" rx="3.35145" ry="4.02174" fill="#252525"/>
<mask id="mask3_1902_3639" style="mask-type:alpha" maskUnits="userSpaceOnUse" x="56" y="51" width="8" height="9">
<ellipse cx="3.35145" cy="4.02174" rx="3.35145" ry="4.02174" transform="matrix(-1 0 0 1 63.0215 51.0941)" fill="#696969"/>
</mask>
<g mask="url(#mask3_1902_3639)">
<circle cx="58.3297" cy="53.6412" r="1.20652" fill="white" fill-opacity="0.25"/>
<circle cx="57.2574" cy="55.518" r="0.402174" fill="white" fill-opacity="0.35"/>
</g>
<path d="M38.9926 15.2692C36.8427 12.225 32.743 11.2924 29.4879 13.1071C26.1241 14.9823 24.7991 19.1503 26.4625 22.6237L31.2269 32.5718L45.4371 24.3943L38.9926 15.2692Z" fill="#696969"/>
<path d="M35.0939 16.8171C34.0664 15.4977 32.2302 15.1249 30.7696 15.9391L30.5555 16.0585C29.0412 16.9026 28.4962 18.8133 29.3373 20.3293C29.803 21.1688 30.4332 21.9058 31.1902 22.4963L33.3082 24.1486L37.1482 22.1377L36.6128 19.9195C36.3471 18.8192 35.85 17.7881 35.1546 16.895L35.0939 16.8171Z" fill="#E64562"/>
<mask id="mask4_1902_3639" style="mask-type:alpha" maskUnits="userSpaceOnUse" x="29" y="15" width="9" height="10">
<path d="M35.1856 17.0061C34.1581 15.6867 32.3219 15.3139 30.8613 16.1282L30.6471 16.2475C29.1329 17.0917 28.5879 19.0024 29.429 20.5183C29.8947 21.3578 30.5249 22.0949 31.2819 22.6854L33.3999 24.3376L37.2399 22.3268L36.7044 20.1086C36.4388 19.0082 35.9417 17.9771 35.2462 17.084L35.1856 17.0061Z" fill="#E64562"/>
</mask>
<g mask="url(#mask4_1902_3639)">
<path d="M35.2764 18.7493C34.2489 17.4298 32.4127 17.057 30.9521 17.8713L30.738 17.9907C29.2237 18.8348 28.6787 20.7455 29.5198 22.2614C29.9855 23.101 30.6157 23.838 31.3727 24.4285L33.4907 26.0808L37.3307 24.0699L36.7952 21.8517C36.5296 20.7513 36.0325 19.7202 35.337 18.8271L35.2764 18.7493Z" fill="#FFEDF0" fill-opacity="0.25"/>
</g>
<path d="M61.2635 15.2692C63.4134 12.225 67.5131 11.2924 70.7682 13.1071C74.132 14.9823 75.457 19.1503 73.7936 22.6237L69.0292 32.5718L54.819 24.3943L61.2635 15.2692Z" fill="#696969"/>
<path d="M65.162 16.8171C66.1894 15.4977 68.0256 15.1249 69.4863 15.9391L69.7004 16.0585C71.2146 16.9026 71.7596 18.8133 70.9186 20.3293C70.4528 21.1688 69.8226 21.9058 69.0656 22.4963L66.9477 24.1486L63.1077 22.1377L63.6431 19.9195C63.9087 18.8192 64.4058 17.7881 65.1013 16.895L65.162 16.8171Z" fill="#E64562"/>
<mask id="mask5_1902_3639" style="mask-type:alpha" maskUnits="userSpaceOnUse" x="63" y="15" width="9" height="10">
<path d="M65.071 17.0061C66.0985 15.6867 67.9347 15.3139 69.3953 16.1282L69.6095 16.2475C71.1237 17.0917 71.6687 19.0024 70.8276 20.5183C70.3619 21.3578 69.7317 22.0949 68.9747 22.6854L66.8567 24.3376L63.0167 22.3268L63.5522 20.1086C63.8178 19.0082 64.3149 17.9771 65.0104 17.084L65.071 17.0061Z" fill="#E64562"/>
</mask>
<g mask="url(#mask5_1902_3639)">
<path d="M64.9797 18.7493C66.0072 17.4298 67.8434 17.057 69.304 17.8713L69.5181 17.9907C71.0324 18.8348 71.5774 20.7455 70.7363 22.2614C70.2706 23.101 69.6404 23.838 68.8834 24.4285L66.7654 26.0808L62.9254 24.0699L63.4609 21.8517C63.7265 20.7513 64.2236 19.7202 64.9191 18.8271L64.9797 18.7493Z" fill="#FFEDF0" fill-opacity="0.25"/>
</g>
<path d="M70.6628 27.5839C76.3399 35.2754 74.3718 46.3575 72.4056 50.6921L70.924 52.241C70.0947 53.1081 68.7389 53.1939 67.8069 52.4384C57.7673 44.301 43.5024 43.959 33.0844 51.6059L32.3209 52.1663C31.223 52.9722 29.6755 52.7063 28.9097 51.58L28.0324 50.2899C25.483 46.1598 25.0674 41.8346 25.573 37.9531C26.515 30.7224 31.0787 24.0252 37.8729 21.3779C48.9043 17.0795 64.394 19.0906 70.6628 27.5839Z" fill="#4E4E4E"/>
<mask id="mask6_1902_3639" style="mask-type:alpha" maskUnits="userSpaceOnUse" x="25" y="19" width="50" height="34">
<path d="M70.6628 27.5839C76.3399 35.2754 74.3718 46.3575 72.4056 50.6921L70.924 52.241C70.0947 53.1081 68.7389 53.1939 67.8069 52.4384C57.7673 44.301 43.5024 43.959 33.0844 51.6059L32.3209 52.1663C31.223 52.9722 29.6755 52.7063 28.9097 51.58L28.0324 50.2899C25.483 46.1598 25.0674 41.8346 25.573 37.9531C26.515 30.7224 31.0787 24.0252 37.8729 21.3779C48.9043 17.0795 64.394 19.0906 70.6628 27.5839Z" fill="#696969"/>
</mask>
<g mask="url(#mask6_1902_3639)">
<path d="M73.7463 47.6087C54.9781 26.9102 34.1098 38.9843 26.0216 47.6087V56.4566H72.1376L73.7463 47.6087Z" fill="#9E9E9E"/>
</g>
<path d="M29.2391 44.6593C30.0435 45.7318 30.1507 49.8876 31.6522 48.8151C33.529 47.4746 50.8225 32.8622 68.9203 48.8151C69.68 49.0833 70.2609 48.2789 72.1377 45.8659" stroke="#454545" stroke-width="0.5" stroke-dasharray="2 2"/>
<path d="M23.6167 101.685C24.983 93.9116 31.0895 87.7857 38.8464 86.3261C46.718 84.8448 54.8605 84.862 62.7214 86.3991C70.0644 87.8349 75.8516 93.4977 77.4465 100.808L78.6982 106.545C79.2345 109.003 77.8091 111.465 75.4102 112.223C59.409 117.284 42.1105 117.245 26.1094 112.184C23.769 111.444 22.3174 109.078 22.7423 106.661L23.6167 101.685Z" fill="#005B00"/>
<g filter="url(#filter5_d_1902_3639)">
<path d="M39.7243 82.3373C39.9368 81.3812 40.9078 80.7943 41.8555 81.0417C47.1856 82.4328 52.8172 82.4416 58.1473 81.0504C59.1088 80.7995 60.0824 81.4132 60.2706 82.389L60.8673 85.4827C61.3225 87.8427 59.8112 90.1492 57.4733 90.7071C52.5163 91.89 47.3012 91.9018 42.3441 90.7188C39.9824 90.1552 38.5099 87.8008 39.0367 85.4306L39.7243 82.3373Z" fill="#005B00"/>
</g>
<path d="M31.7863 113.833C31.5182 110.169 31.4645 102.197 33.395 99.6232" stroke="#1C1C1C" stroke-opacity="0.5"/>
<path d="M69.7246 113.833C69.9927 110.169 70.0463 102.197 68.1159 99.6232" stroke="#1C1C1C" stroke-opacity="0.5"/>
</g>
<defs>
<filter id="filter0_f_1902_3639" x="22.5583" y="49.5074" width="10.0133" height="15.1051" filterUnits="userSpaceOnUse" color-interpolation-filters="sRGB">
<feFlood flood-opacity="0" result="BackgroundImageFix"/>
<feBlend mode="normal" in="SourceGraphic" in2="BackgroundImageFix" result="shape"/>
<feGaussianBlur stdDeviation="2" result="effect1_foregroundBlur_1902_3639"/>
</filter>
<filter id="filter1_f_1902_3639" x="66.2607" y="49.5071" width="10.0133" height="15.1051" filterUnits="userSpaceOnUse" color-interpolation-filters="sRGB">
<feFlood flood-opacity="0" result="BackgroundImageFix"/>
<feBlend mode="normal" in="SourceGraphic" in2="BackgroundImageFix" result="shape"/>
<feGaussianBlur stdDeviation="2" result="effect1_foregroundBlur_1902_3639"/>
</filter>
<filter id="filter2_d_1902_3639" x="25.7754" y="29.2028" width="47.9493" height="51.4348" filterUnits="userSpaceOnUse" color-interpolation-filters="sRGB">
<feFlood flood-opacity="0" result="BackgroundImageFix"/>
<feColorMatrix in="SourceAlpha" type="matrix" values="0 0 0 0 0 0 0 0 0 0 0 0 0 0 0 0 0 0 127 0" result="hardAlpha"/>
<feOffset dy="-1"/>
<feGaussianBlur stdDeviation="2"/>
<feComposite in2="hardAlpha" operator="out"/>
<feColorMatrix type="matrix" values="0 0 0 0 0 0 0 0 0 0 0 0 0 0 0 0 0 0 0.15 0"/>
<feBlend mode="normal" in2="BackgroundImageFix" result="effect1_dropShadow_1902_3639"/>
<feBlend mode="normal" in="SourceGraphic" in2="effect1_dropShadow_1902_3639" result="shape"/>
</filter>
<filter id="filter3_f_1902_3639" x="18.2438" y="25.8117" width="33.2159" height="61.692" filterUnits="userSpaceOnUse" color-interpolation-filters="sRGB">
<feFlood flood-opacity="0" result="BackgroundImageFix"/>
<feBlend mode="normal" in="SourceGraphic" in2="BackgroundImageFix" result="shape"/>
<feGaussianBlur stdDeviation="5" result="effect1_foregroundBlur_1902_3639"/>
</filter>
<filter id="filter4_f_1902_3639" x="47.6593" y="25.8117" width="33.2159" height="61.692" filterUnits="userSpaceOnUse" color-interpolation-filters="sRGB">
<feFlood flood-opacity="0" result="BackgroundImageFix"/>
<feBlend mode="normal" in="SourceGraphic" in2="BackgroundImageFix" result="shape"/>
<feGaussianBlur stdDeviation="5" result="effect1_foregroundBlur_1902_3639"/>
</filter>
<filter id="filter5_d_1902_3639" x="34.9299" y="76.985" width="30.0182" height="18.6151" filterUnits="userSpaceOnUse" color-interpolation-filters="sRGB">
<feFlood flood-opacity="0" result="BackgroundImageFix"/>
<feColorMatrix in="SourceAlpha" type="matrix" values="0 0 0 0 0 0 0 0 0 0 0 0 0 0 0 0 0 0 127 0" result="hardAlpha"/>
<feOffset/>
<feGaussianBlur stdDeviation="2"/>
<feComposite in2="hardAlpha" operator="out"/>
<feColorMatrix type="matrix" values="0 0 0 0 0 0 0 0 0 0 0 0 0 0 0 0 0 0 0.15 0"/>
<feBlend mode="normal" in2="BackgroundImageFix" result="effect1_dropShadow_1902_3639"/>
<feBlend mode="normal" in="SourceGraphic" in2="effect1_dropShadow_1902_3639" result="shape"/>
</filter>
</defs>
</svg>
