<svg width="100" height="112" viewBox="0 0 100 112" fill="none" xmlns="http://www.w3.org/2000/svg">
<rect width="100" height="112" rx="6" fill="#FFD2BF"/>
<mask id="mask0_1902_3642" style="mask-type:alpha" maskUnits="userSpaceOnUse" x="0" y="0" width="100" height="112">
<rect width="100" height="112" rx="6" fill="#D9D9D9"/>
</mask>
<g mask="url(#mask0_1902_3642)">
<circle cx="50" cy="95" r="55" fill="white" fill-opacity="0.25"/>
<path d="M16.5745 107.387L42.4731 87.1181L57.7413 97.0218L26.5514 123.442C24.5731 125.117 21.5478 124.497 20.3884 122.178L15.462 112.326C14.6113 110.624 15.0765 108.559 16.5745 107.387Z" fill="#56351D"/>
<path d="M84.0525 107.387L58.1538 87.1181L42.8856 97.0218L74.0755 123.442C76.0538 125.117 79.0791 124.497 80.2386 122.178L85.1649 112.326C86.0156 110.624 85.5505 108.559 84.0525 107.387Z" fill="#56351D"/>
<path d="M16.5745 86.6571L42.4731 106.926L57.7413 97.0219L26.5514 70.6022C24.5731 68.9264 21.5478 69.5466 20.3884 71.8655L15.462 81.7182C14.6113 83.4196 15.0765 85.4847 16.5745 86.6571Z" fill="#56351D"/>
<path d="M84.0525 86.6571L58.1538 106.926L42.8856 97.0219L74.0755 70.6022C76.0538 68.9264 79.0791 69.5466 80.2386 71.8655L85.1649 81.7182C86.0156 83.4196 85.5505 85.4847 84.0525 86.6571Z" fill="#56351D"/>
<path d="M21.8404 40.9009C11.2847 76.0867 24.2326 95.0917 36.4412 102.919C41.1947 105.967 46.9922 106.539 52.637 106.682C54.0527 106.718 55.353 106.739 56.5571 106.716C60.1223 106.648 63.6004 105.476 66.4627 103.349C85.6508 89.0909 81.1133 52.5129 73.4223 36.3617C72.1018 43.9545 69.0206 47.7785 67.6451 48.7413C62.3631 46.4305 54.7153 18.6176 51.5516 5C38.3467 25.4676 31.4691 48.7413 29.6809 57.8197C25.7195 54.5185 22.8033 45.165 21.8404 40.9009Z" fill="#FF5842"/>
<path d="M29.2187 67.324C23.1124 87.8354 32.1017 99.0316 40.0635 104.027C43.7701 106.353 49.0916 106.994 53.4667 106.921C56.2256 106.875 58.0948 106.067 60.2499 104.344C71.6012 95.2667 71.9378 73.3014 67.3834 63.6634C66.586 68.2835 61.0624 71.0574 60.2318 71.6433C57.0424 70.2372 52.4244 53.3135 50.5141 45.0274C42.5405 57.4816 38.3876 71.6433 37.3079 77.1673C34.9158 75.1586 29.8001 69.9187 29.2187 67.324Z" fill="#FF8642"/>
</g>
</svg>
