<svg width="164" height="84" viewBox="0 0 164 84" fill="none" xmlns="http://www.w3.org/2000/svg">
<g clip-path="url(#clip0_1464_1765)">
<rect x="-1" width="165" height="84" rx="6" fill="#B5A9E2"/>
<path d="M68.5 35C49.3 15.8 28.8333 30.3333 21 40V86.5H165.5V44.5C163.833 41.3333 155.6 35 136 35C111.5 35 92.5 59 68.5 35Z" fill="white" fill-opacity="0.13"/>
<rect x="-17" y="22.5901" width="76.5902" height="69.4098" rx="6" fill="#E9E9E9"/>
<path d="M-17 28.5902C-17 25.2764 -14.3137 22.5901 -11 22.5901H53.5902C56.9039 22.5901 59.5902 25.2764 59.5902 28.5901V41.7377H-17V28.5902Z" fill="#E64562"/>
<circle cx="11.7212" cy="32.1639" r="4.78689" fill="#E9E9E9"/>
<circle cx="30.8689" cy="32.1639" r="4.78689" fill="#E9E9E9"/>
<circle cx="50.0164" cy="32.1639" r="4.78689" fill="#E9E9E9"/>
<rect x="9.32788" y="19" width="4.78689" height="13.1639" rx="1" fill="#696969"/>
<rect x="28.4753" y="19" width="4.78689" height="13.1639" rx="1" fill="#696969"/>
<rect x="47.623" y="19" width="4.78689" height="13.1639" rx="1" fill="#696969"/>
<path d="M9.63779 59.4776C10.5258 59.4776 11.3018 59.6536 11.9658 60.0056C12.6298 60.3576 13.1418 60.8536 13.5018 61.4936C13.8698 62.1256 14.0538 62.8576 14.0538 63.6896C14.0538 64.5136 13.8698 65.2456 13.5018 65.8856C13.1418 66.5256 12.6258 67.0216 11.9538 67.3736C11.2898 67.7256 10.5178 67.9016 9.63779 67.9016H6.48179V59.4776H9.63779ZM9.50579 66.1256C10.2818 66.1256 10.8858 65.9136 11.3178 65.4896C11.7498 65.0656 11.9658 64.4656 11.9658 63.6896C11.9658 62.9136 11.7498 62.3096 11.3178 61.8776C10.8858 61.4456 10.2818 61.2296 9.50579 61.2296H8.53379V66.1256H9.50579ZM20.4445 66.4136H17.3005L16.7965 67.9016H14.6485L17.6965 59.4776H20.0725L23.1205 67.9016H20.9485L20.4445 66.4136ZM19.9165 64.8296L18.8725 61.7456L17.8405 64.8296H19.9165ZM31.2722 59.4776L28.3562 65.1176V67.9016H26.3042V65.1176L23.3882 59.4776H25.7162L27.3482 63.0056L28.9682 59.4776H31.2722Z" fill="#696969"/>
</g>
<defs>
<clipPath id="clip0_1464_1765">
<rect width="164" height="84" rx="6" fill="white"/>
</clipPath>
</defs>
</svg>
