<svg width="169" height="408" viewBox="0 0 169 408" fill="none" xmlns="http://www.w3.org/2000/svg">
<g filter="url(#filter0_f_1306_4031)">
<ellipse cx="84.5" cy="388.5" rx="69.5" ry="4.5" fill="#3C3C3C" fill-opacity="0.35"/>
</g>
<rect x="58.6606" y="305.909" width="15.8385" height="35.9359" fill="#3C3C3C"/>
<path d="M62.3121 338.822C62.6368 336.636 64.5133 335.018 66.7231 335.018C68.9218 335.018 70.7923 336.62 71.1297 338.793L74.9517 363.407H58.6606L62.3121 338.822Z" fill="white"/>
<path d="M73.3071 363.095L69.4381 343.171C68.9657 340.739 70.829 338.479 73.3071 338.479L79.617 363.095H73.3071Z" fill="black"/>
<path d="M74.0717 363.455L70.3705 344.395C69.8111 341.514 72.0174 338.839 74.9516 338.839L80.3816 363.455H74.0717Z" fill="#D9D9D9"/>
<path d="M60.3047 363.095L64.1737 343.171C64.6461 340.739 62.7829 338.479 60.3047 338.479L53.9948 363.095H60.3047Z" fill="black"/>
<path d="M59.5406 363.455L63.1987 344.617C63.7804 341.621 61.486 338.839 58.4344 338.839L53.2307 363.455H59.5406Z" fill="#D9D9D9"/>
<rect x="61.6431" y="343.642" width="10.3253" height="0.718718" fill="#010101"/>
<rect x="60.8779" y="346.158" width="11.4726" height="0.718718" fill="#010101"/>
<rect x="60.1133" y="348.673" width="12.6198" height="0.718718" fill="#010101"/>
<rect x="59.731" y="351.189" width="13.7671" height="0.718718" fill="#010101"/>
<rect x="58.9663" y="353.571" width="15.2967" height="0.718718" fill="#010101"/>
<path d="M53.2305 364.844C53.2305 360.28 56.931 356.579 61.4957 356.579H72.1169C76.6817 356.579 80.3822 360.28 80.3822 364.844H53.2305Z" fill="black"/>
<path d="M53.2305 364.844H80.3822V365C80.3822 366.105 79.4867 367 78.3822 367H55.2305C54.1259 367 53.2305 366.105 53.2305 365V364.844Z" fill="#D9D9D9"/>
<rect x="88.98" y="305.909" width="15.8385" height="35.9359" fill="#3C3C3C"/>
<path d="M92.6315 338.822C92.9561 336.636 94.8326 335.018 97.0425 335.018C99.2411 335.018 101.112 336.62 101.449 338.793L105.271 363.407H88.98L92.6315 338.822Z" fill="white"/>
<path d="M103.626 363.095L99.7574 343.171C99.285 340.739 101.148 338.479 103.626 338.479L109.936 363.095H103.626Z" fill="black"/>
<path d="M104.391 363.455L100.69 344.395C100.13 341.514 102.337 338.839 105.271 338.839L110.701 363.455H104.391Z" fill="#D9D9D9"/>
<path d="M90.6241 363.095L94.493 343.171C94.9654 340.739 93.1022 338.479 90.6241 338.479L84.3142 363.095H90.6241Z" fill="black"/>
<path d="M89.8599 363.455L93.518 344.617C94.0997 341.621 91.8053 338.839 88.7537 338.839L83.55 363.455H89.8599Z" fill="#D9D9D9"/>
<rect x="91.9629" y="343.642" width="10.3253" height="0.718718" fill="#010101"/>
<rect x="91.1973" y="346.158" width="11.4726" height="0.718718" fill="#010101"/>
<rect x="90.4331" y="348.673" width="12.6198" height="0.718718" fill="#010101"/>
<rect x="90.0503" y="351.189" width="13.7671" height="0.718718" fill="#010101"/>
<rect x="89.2856" y="353.571" width="15.2967" height="0.718718" fill="#010101"/>
<path d="M83.5493 364.844C83.5493 360.28 87.2498 356.579 91.8146 356.579H102.436C107.001 356.579 110.701 360.28 110.701 364.844H83.5493Z" fill="black"/>
<path d="M83.5493 364.844H110.701V365C110.701 366.105 109.806 367 108.701 367H85.5493C84.4447 367 83.5493 366.105 83.5493 365V364.844Z" fill="#D9D9D9"/>
<path d="M45.6909 214.007H83.3484L79.2364 327.954H55.8628L45.6909 214.007Z" fill="#7C7C7C"/>
<path d="M117.975 214.007H80.3176L84.4296 327.954H107.803L117.975 214.007Z" fill="#7C7C7C"/>
<path d="M28.4428 173.181L46.4421 170.603L42.5504 202.567V245.007C42.5504 248.901 39.3934 252.058 35.499 252.058C31.699 252.058 28.5824 249.047 28.4518 245.249L26.9834 202.567L28.4428 173.181Z" fill="#F9C09B"/>
<path d="M49.7333 185.989L26.9834 177.165C26.9833 163.933 30.879 150.257 36.271 141.655C37.6463 139.461 39.5631 137.675 41.7182 136.239C48.553 131.685 55.7346 128.202 60.0162 126.029C49.9051 133.994 47.2054 171.056 49.7333 185.989Z" fill="#4E4F4E"/>
<path d="M135.036 173.181L117.036 170.603L120.928 202.567V245.007C120.928 248.901 124.085 252.058 127.98 252.058C131.78 252.058 134.896 249.047 135.027 245.249L136.495 202.567L135.036 173.181Z" fill="#F9C09B"/>
<path d="M113.743 185.989L136.493 177.165C136.493 163.933 132.598 150.257 127.206 141.655C125.83 139.461 123.913 137.675 121.758 136.239C114.924 131.685 107.742 128.202 103.46 126.029C113.571 133.994 116.271 171.056 113.743 185.989Z" fill="#4E4F4E"/>
<path d="M44.3024 157.059C43.9861 136.142 60.8556 119.015 81.7754 119.015C102.667 119.015 119.526 136.098 119.249 156.988L118.168 238.709H45.5372L44.3024 157.059Z" fill="#4E4F4E"/>
<path d="M78.6294 137.805C63.6738 133.389 60.7658 121.187 61.1813 115.549C54.6295 132.641 67.3533 142.849 74.5342 145.817C74.6767 142.683 77.3237 139.11 78.6294 137.805Z" fill="#C4C4C4"/>
<path d="M85.5723 137.627C100.528 133.211 103.436 121.187 103.02 115.549C109.572 132.641 96.8483 142.849 89.6674 145.817C89.525 142.683 86.878 138.932 85.5723 137.627Z" fill="#C4C4C4"/>
<g filter="url(#filter1_i_1306_4031)">
<path d="M102.664 117.125C102.664 128.728 93.2575 138.134 81.6546 138.134C70.0517 138.134 60.6457 128.728 60.6457 117.125L60.6457 108.579L102.664 108.579L102.664 117.125Z" fill="#F9C09B"/>
</g>
<g filter="url(#filter2_d_1306_4031)">
<path d="M81.1205 130.123C39.3875 130.123 28.7168 87.2738 28.5981 65.8495L81.1205 31.3093L134.889 65.8495C134.355 87.2738 122.854 130.123 81.1205 130.123Z" fill="#F9C09B"/>
</g>
<path d="M30.3789 83.1189C37.7854 75.9972 42.2484 66.383 43.554 62.466C69.9042 78.4186 105.809 69.1129 120.468 62.466C120.753 73.0061 128.302 80.6263 132.575 83.1189C140.053 67.6292 138.154 50.1218 136.136 38.2523C141.263 38.8221 145.038 35.9971 146.284 34.5135C139.875 34.7983 132.575 27.6292 129.726 24.009C134.142 23.7241 139.756 21.0416 142.011 19.736C122.605 19.3799 117.085 7.80716 76.8479 0.685484C44.6579 -5.01186 30.557 26.2048 27.5302 42.5253C18.1296 47.653 25.5124 71.7242 30.3789 83.1189Z" fill="black"/>
<path d="M43.3759 62.2885C35.1147 58.7277 29.9634 47.333 28.4203 42.7039C27.8862 43.7722 27.7082 47.4042 31.269 53.3864C34.8298 59.3686 40.8239 62.2292 43.3759 62.2885Z" fill="#C4C4C4" fill-opacity="0.23"/>
<circle cx="57.2637" cy="82.7635" r="3.3828" fill="black"/>
<circle cx="104.266" cy="82.7635" r="3.3828" fill="black"/>
<mask id="mask0_1306_4031" style="mask-type:alpha" maskUnits="userSpaceOnUse" x="23" y="0" width="124" height="84">
<path d="M30.3789 83.1189C37.7854 75.9972 42.2484 66.383 43.554 62.466C69.9042 78.4186 105.809 69.1129 120.468 62.466C120.753 73.0061 128.302 80.6263 132.575 83.1189C140.053 67.6292 138.154 50.1218 136.136 38.2523C141.263 38.8221 145.038 35.9971 146.284 34.5135C139.875 34.7983 132.575 27.6292 129.726 24.009C134.142 23.7241 139.756 21.0416 142.011 19.736C122.605 19.3799 117.085 7.80716 76.8479 0.685484C44.6579 -5.01186 30.557 26.2048 27.5302 42.5253C18.1296 47.653 25.5124 71.7242 30.3789 83.1189Z" fill="black"/>
</mask>
<g mask="url(#mask0_1306_4031)">
<ellipse cx="116.32" cy="5.96794" rx="66.7657" ry="26.1722" transform="rotate(20.2415 116.32 5.96794)" fill="#C4C4C4" fill-opacity="0.15"/>
</g>
<mask id="mask1_1306_4031" style="mask-type:alpha" maskUnits="userSpaceOnUse" x="23" y="0" width="124" height="84">
<path d="M30.3789 83.1189C37.7854 75.9972 42.2484 66.383 43.554 62.466C69.9042 78.4186 105.809 69.1129 120.468 62.466C120.753 73.0061 128.302 80.6263 132.575 83.1189C140.053 67.6292 138.154 50.1218 136.136 38.2523C141.263 38.8221 145.038 35.9971 146.284 34.5135C139.875 34.7983 132.575 27.6292 129.726 24.009C134.142 23.7241 139.756 21.0416 142.011 19.736C122.605 19.3799 117.085 7.80716 76.8479 0.685484C44.6579 -5.01186 30.557 26.2048 27.5302 42.5253C18.1296 47.653 25.5124 71.7242 30.3789 83.1189Z" fill="black"/>
</mask>
<g mask="url(#mask1_1306_4031)">
<ellipse cx="137.506" cy="19.46" rx="14.0653" ry="5.16322" transform="rotate(14.1608 137.506 19.46)" fill="white" fill-opacity="0.2"/>
</g>
<mask id="mask2_1306_4031" style="mask-type:alpha" maskUnits="userSpaceOnUse" x="23" y="0" width="124" height="84">
<path d="M30.3789 83.1189C37.7854 75.9972 42.2484 66.383 43.554 62.466C69.9042 78.4186 105.809 69.1129 120.468 62.466C120.753 73.0061 128.302 80.6263 132.575 83.1189C140.053 67.6292 138.154 50.1218 136.136 38.2523C141.263 38.8221 145.038 35.9971 146.284 34.5135C139.875 34.7983 132.575 27.6292 129.726 24.009C134.142 23.7241 139.756 21.0416 142.011 19.736C122.605 19.3799 117.085 7.80716 76.8479 0.685484C44.6579 -5.01186 30.557 26.2048 27.5302 42.5253C18.1296 47.653 25.5124 71.7242 30.3789 83.1189Z" fill="black"/>
</mask>
<g mask="url(#mask2_1306_4031)">
<ellipse cx="140.053" cy="61.932" rx="10.3264" ry="17.4481" fill="white" fill-opacity="0.12"/>
</g>
<path d="M49.1948 76.8032C49.1596 76.6279 49.1918 76.4457 49.2849 76.293L49.3701 76.1534C51.8328 72.1172 57.2483 71.0936 61.0209 73.9437C61.1565 74.0462 61.2501 74.195 61.2836 74.3617L61.3278 74.5816C61.4382 75.1318 60.8097 75.5267 60.3619 75.1884C57.1593 72.7689 52.568 73.6423 50.4774 77.0686L50.3839 77.2218C50.0878 77.7071 49.3501 77.5768 49.2382 77.0194L49.1948 76.8032Z" fill="black"/>
<path d="M99.5621 74.9339C99.5793 74.7559 99.6629 74.5908 99.7963 74.4717L99.9183 74.3627C103.445 71.2135 108.925 71.8032 111.709 75.6244C111.81 75.7618 111.856 75.9313 111.84 76.1006L111.818 76.3238C111.765 76.8824 111.049 77.0782 110.718 76.6247C108.354 73.3809 103.707 72.8862 100.713 75.5596L100.579 75.6792C100.155 76.0578 99.4866 75.7193 99.541 75.1534L99.5621 74.9339Z" fill="black"/>
<path d="M84.5294 100.288C84.5267 100.372 84.4927 100.451 84.4341 100.51L84.3806 100.565C82.8329 102.134 80.2665 102.021 78.8583 100.326C78.8077 100.265 78.7811 100.187 78.7836 100.108L78.787 100.003C78.7956 99.742 79.1228 99.6298 79.29 99.831C80.4854 101.27 82.6619 101.363 83.9757 100.031L84.0345 99.9717C84.2205 99.7831 84.5414 99.9208 84.5328 100.186L84.5294 100.288Z" fill="#D2A182"/>
<defs>
<filter id="filter0_f_1306_4031" x="0" y="369" width="169" height="39" filterUnits="userSpaceOnUse" color-interpolation-filters="sRGB">
<feFlood flood-opacity="0" result="BackgroundImageFix"/>
<feBlend mode="normal" in="SourceGraphic" in2="BackgroundImageFix" result="shape"/>
<feGaussianBlur stdDeviation="7.5" result="effect1_foregroundBlur_1306_4031"/>
</filter>
<filter id="filter1_i_1306_4031" x="60.6455" y="107.579" width="42.0181" height="30.555" filterUnits="userSpaceOnUse" color-interpolation-filters="sRGB">
<feFlood flood-opacity="0" result="BackgroundImageFix"/>
<feBlend mode="normal" in="SourceGraphic" in2="BackgroundImageFix" result="shape"/>
<feColorMatrix in="SourceAlpha" type="matrix" values="0 0 0 0 0 0 0 0 0 0 0 0 0 0 0 0 0 0 127 0" result="hardAlpha"/>
<feOffset dy="-1"/>
<feGaussianBlur stdDeviation="2"/>
<feComposite in2="hardAlpha" operator="arithmetic" k2="-1" k3="1"/>
<feColorMatrix type="matrix" values="0 0 0 0 0 0 0 0 0 0 0 0 0 0 0 0 0 0 0.25 0"/>
<feBlend mode="normal" in2="shape" result="effect1_innerShadow_1306_4031"/>
</filter>
<filter id="filter2_d_1306_4031" x="24.5981" y="31.3093" width="114.291" height="106.813" filterUnits="userSpaceOnUse" color-interpolation-filters="sRGB">
<feFlood flood-opacity="0" result="BackgroundImageFix"/>
<feColorMatrix in="SourceAlpha" type="matrix" values="0 0 0 0 0 0 0 0 0 0 0 0 0 0 0 0 0 0 127 0" result="hardAlpha"/>
<feOffset dy="4"/>
<feGaussianBlur stdDeviation="2"/>
<feComposite in2="hardAlpha" operator="out"/>
<feColorMatrix type="matrix" values="0 0 0 0 0 0 0 0 0 0 0 0 0 0 0 0 0 0 0.25 0"/>
<feBlend mode="normal" in2="BackgroundImageFix" result="effect1_dropShadow_1306_4031"/>
<feBlend mode="normal" in="SourceGraphic" in2="effect1_dropShadow_1306_4031" result="shape"/>
</filter>
</defs>
</svg>
