<svg width="223" height="386" viewBox="0 0 223 386" fill="none" xmlns="http://www.w3.org/2000/svg">
<g filter="url(#filter0_f_1306_4608)">
<ellipse cx="114.5" cy="366.5" rx="69.5" ry="4.5" fill="#3C3C3C" fill-opacity="0.25"/>
</g>
<rect x="88.6606" y="305.909" width="15.8385" height="35.9359" fill="#3C3C3C"/>
<path d="M92.3121 338.822C92.6368 336.636 94.5133 335.018 96.7231 335.018C98.9218 335.018 100.792 336.62 101.13 338.793L104.952 363.407H88.6606L92.3121 338.822Z" fill="white"/>
<path d="M103.307 363.095L99.4381 343.171C98.9657 340.739 100.829 338.479 103.307 338.479L109.617 363.095H103.307Z" fill="black"/>
<path d="M104.072 363.455L100.37 344.395C99.8111 341.514 102.017 338.839 104.952 338.839L110.382 363.455H104.072Z" fill="#D9D9D9"/>
<path d="M90.3047 363.095L94.1737 343.171C94.6461 340.739 92.7829 338.479 90.3047 338.479L83.9948 363.095H90.3047Z" fill="black"/>
<path d="M89.5406 363.455L93.1987 344.617C93.7804 341.621 91.486 338.839 88.4344 338.839L83.2307 363.455H89.5406Z" fill="#D9D9D9"/>
<rect x="91.6431" y="343.642" width="10.3253" height="0.718718" fill="#010101"/>
<rect x="90.8779" y="346.158" width="11.4726" height="0.718718" fill="#010101"/>
<rect x="90.1133" y="348.673" width="12.6198" height="0.718718" fill="#010101"/>
<rect x="89.731" y="351.188" width="13.7671" height="0.718718" fill="#010101"/>
<rect x="88.9663" y="353.571" width="15.2967" height="0.718718" fill="#010101"/>
<path d="M83.2305 364.844C83.2305 360.28 86.931 356.579 91.4957 356.579H102.117C106.682 356.579 110.382 360.28 110.382 364.844H83.2305Z" fill="black"/>
<path d="M83.2305 364.844H110.382V365C110.382 366.105 109.487 367 108.382 367H85.2305C84.1259 367 83.2305 366.105 83.2305 365V364.844Z" fill="#D9D9D9"/>
<rect x="118.98" y="305.909" width="15.8385" height="35.9359" fill="#3C3C3C"/>
<path d="M122.631 338.822C122.956 336.636 124.833 335.018 127.042 335.018C129.241 335.018 131.112 336.62 131.449 338.793L135.271 363.407H118.98L122.631 338.822Z" fill="white"/>
<path d="M133.626 363.095L129.757 343.171C129.285 340.739 131.148 338.479 133.626 338.479L139.936 363.095H133.626Z" fill="black"/>
<path d="M134.391 363.455L130.69 344.395C130.13 341.514 132.337 338.839 135.271 338.839L140.701 363.455H134.391Z" fill="#D9D9D9"/>
<path d="M120.624 363.095L124.493 343.171C124.965 340.739 123.102 338.479 120.624 338.479L114.314 363.095H120.624Z" fill="black"/>
<path d="M119.86 363.455L123.518 344.617C124.1 341.621 121.805 338.839 118.754 338.839L113.55 363.455H119.86Z" fill="#D9D9D9"/>
<rect x="121.963" y="343.642" width="10.3253" height="0.718718" fill="#010101"/>
<rect x="121.197" y="346.158" width="11.4726" height="0.718718" fill="#010101"/>
<rect x="120.433" y="348.673" width="12.6198" height="0.718718" fill="#010101"/>
<rect x="120.05" y="351.188" width="13.7671" height="0.718718" fill="#010101"/>
<rect x="119.286" y="353.571" width="15.2967" height="0.718718" fill="#010101"/>
<path d="M113.549 364.844C113.549 360.28 117.25 356.579 121.815 356.579H132.436C137.001 356.579 140.701 360.28 140.701 364.844H113.549Z" fill="black"/>
<path d="M113.549 364.844H140.701V365C140.701 366.105 139.806 367 138.701 367H115.549C114.445 367 113.549 366.105 113.549 365V364.844Z" fill="#D9D9D9"/>
<path d="M75.6914 214.007H113.349L109.237 327.954H85.8633L75.6914 214.007Z" fill="#7C7C7C"/>
<path d="M147.976 214.007H110.318L114.43 327.954H137.804L147.976 214.007Z" fill="#7C7C7C"/>
<path d="M167.627 133.531L185 143.5L196 116L205.013 69.6153C205.593 66.6327 204.17 63.619 201.498 62.1718C197.561 60.0389 192.663 62.1279 191.477 66.4461L181.221 103.789C180.635 105.924 179.859 108.001 178.903 109.997L167.627 133.531Z" fill="#F9C09B"/>
<path d="M133.461 126.029C143.572 133.994 146.272 171.056 143.744 185.989L149 173.5L161.367 166.139C167.105 162.723 172.45 158.686 177.304 154.101L188 144L167.5 128.5C164.967 128.88 162.918 129.452 161.229 130.095C155.254 132.37 149.847 132.112 143.888 129.794C139.917 128.248 136.432 127.537 133.461 126.029Z" fill="#4E4F4E"/>
<path d="M74.3029 157.059C73.9865 136.141 90.8561 119.015 111.776 119.015C132.668 119.015 149.526 136.098 149.25 156.988L148.168 238.709H75.5377L74.3029 157.059Z" fill="#4E4F4E"/>
<path d="M108.63 137.805C93.6743 133.389 90.7663 121.187 91.1818 115.549C84.63 132.641 97.3538 142.849 104.535 145.816C104.677 142.683 107.324 139.11 108.63 137.805Z" fill="#C4C4C4"/>
<path d="M115.573 137.627C130.528 133.211 133.436 121.187 133.021 115.549C139.573 132.641 126.849 142.849 119.668 145.816C119.525 142.683 116.878 138.932 115.573 137.627Z" fill="#C4C4C4"/>
<path d="M55.1757 134.531L37.8027 144.5L26.8027 117L17.7893 70.6153C17.2097 67.6327 18.633 64.619 21.3046 63.1718C25.2421 61.0389 30.1398 63.1279 31.3258 67.4461L41.5817 104.789C42.1679 106.924 42.9437 109.001 43.9001 110.997L55.1757 134.531Z" fill="#F9C09B"/>
<path d="M89.3419 127.029C79.2308 134.994 76.5311 172.056 79.059 186.989L73.8027 174.5L61.436 167.139C55.6979 163.723 50.3532 159.686 45.4985 155.101L34.8027 145L55.3027 129.5C57.8357 129.88 59.8846 130.452 61.5736 131.095C67.549 133.37 72.9558 133.112 78.9145 130.794C82.8861 129.248 86.3711 128.537 89.3419 127.029Z" fill="#4E4F4E"/>
<g filter="url(#filter1_i_1306_4608)">
<path d="M132.664 117.125C132.664 128.728 123.258 138.134 111.655 138.134C100.052 138.134 90.6457 128.728 90.6457 117.125L90.6457 108.579L132.664 108.579L132.664 117.125Z" fill="#F9C09B"/>
</g>
<g filter="url(#filter2_d_1306_4608)">
<path d="M111.121 130.123C69.3875 130.123 58.7168 87.2738 58.5981 65.8495L111.121 31.3093L164.889 65.8495C164.355 87.2738 152.854 130.123 111.121 130.123Z" fill="#F9C09B"/>
</g>
<path d="M60.3789 83.1189C67.7854 75.9972 72.2484 66.383 73.554 62.466C99.9042 78.4186 135.809 69.1129 150.468 62.466C150.753 73.0061 158.302 80.6263 162.575 83.1189C170.053 67.6292 168.154 50.1218 166.136 38.2523C171.263 38.8221 175.038 35.9971 176.284 34.5135C169.875 34.7983 162.575 27.6292 159.726 24.009C164.142 23.7241 169.756 21.0416 172.011 19.736C152.605 19.3799 147.085 7.80716 106.848 0.685484C74.6579 -5.01186 60.557 26.2048 57.5302 42.5253C48.1296 47.653 55.5124 71.7242 60.3789 83.1189Z" fill="black"/>
<path d="M73.3759 62.2885C65.1147 58.7276 59.9634 47.3329 58.4203 42.7039C57.8862 43.7721 57.7082 47.4042 61.269 53.3864C64.8298 59.3686 70.8239 62.2291 73.3759 62.2885Z" fill="#C4C4C4" fill-opacity="0.23"/>
<circle cx="87.2637" cy="82.7635" r="3.3828" fill="black"/>
<circle cx="134.266" cy="82.7635" r="3.3828" fill="black"/>
<mask id="mask0_1306_4608" style="mask-type:alpha" maskUnits="userSpaceOnUse" x="53" y="0" width="124" height="84">
<path d="M60.3789 83.1189C67.7854 75.9972 72.2484 66.383 73.554 62.466C99.9042 78.4186 135.809 69.1129 150.468 62.466C150.753 73.0061 158.302 80.6263 162.575 83.1189C170.053 67.6292 168.154 50.1218 166.136 38.2523C171.263 38.8221 175.038 35.9971 176.284 34.5135C169.875 34.7983 162.575 27.6292 159.726 24.009C164.142 23.7241 169.756 21.0416 172.011 19.736C152.605 19.3799 147.085 7.80716 106.848 0.685484C74.6579 -5.01186 60.557 26.2048 57.5302 42.5253C48.1296 47.653 55.5124 71.7242 60.3789 83.1189Z" fill="black"/>
</mask>
<g mask="url(#mask0_1306_4608)">
<ellipse cx="146.32" cy="5.96794" rx="66.7657" ry="26.1722" transform="rotate(20.2415 146.32 5.96794)" fill="#C4C4C4" fill-opacity="0.15"/>
</g>
<mask id="mask1_1306_4608" style="mask-type:alpha" maskUnits="userSpaceOnUse" x="53" y="0" width="124" height="84">
<path d="M60.3789 83.1189C67.7854 75.9972 72.2484 66.383 73.554 62.466C99.9042 78.4186 135.809 69.1129 150.468 62.466C150.753 73.0061 158.302 80.6263 162.575 83.1189C170.053 67.6292 168.154 50.1218 166.136 38.2523C171.263 38.8221 175.038 35.9971 176.284 34.5135C169.875 34.7983 162.575 27.6292 159.726 24.009C164.142 23.7241 169.756 21.0416 172.011 19.736C152.605 19.3799 147.085 7.80716 106.848 0.685484C74.6579 -5.01186 60.557 26.2048 57.5302 42.5253C48.1296 47.653 55.5124 71.7242 60.3789 83.1189Z" fill="black"/>
</mask>
<g mask="url(#mask1_1306_4608)">
<ellipse cx="167.506" cy="19.46" rx="14.0653" ry="5.16322" transform="rotate(14.1608 167.506 19.46)" fill="white" fill-opacity="0.2"/>
</g>
<mask id="mask2_1306_4608" style="mask-type:alpha" maskUnits="userSpaceOnUse" x="53" y="0" width="124" height="84">
<path d="M60.3789 83.1189C67.7854 75.9972 72.2484 66.383 73.554 62.466C99.9042 78.4186 135.809 69.1129 150.468 62.466C150.753 73.0061 158.302 80.6263 162.575 83.1189C170.053 67.6292 168.154 50.1218 166.136 38.2523C171.263 38.8221 175.038 35.9971 176.284 34.5135C169.875 34.7983 162.575 27.6292 159.726 24.009C164.142 23.7241 169.756 21.0416 172.011 19.736C152.605 19.3799 147.085 7.80716 106.848 0.685484C74.6579 -5.01186 60.557 26.2048 57.5302 42.5253C48.1296 47.653 55.5124 71.7242 60.3789 83.1189Z" fill="black"/>
</mask>
<g mask="url(#mask2_1306_4608)">
<ellipse cx="170.053" cy="61.932" rx="10.3264" ry="17.4481" fill="white" fill-opacity="0.12"/>
</g>
<path d="M79.1948 76.8032C79.1596 76.6278 79.1918 76.4456 79.2849 76.2929L79.3701 76.1533C81.8328 72.1171 87.2483 71.0935 91.0209 73.9436C91.1565 74.0461 91.2501 74.1949 91.2836 74.3616L91.3278 74.5815C91.4382 75.1318 90.8097 75.5266 90.3619 75.1883C87.1593 72.7688 82.568 73.6422 80.4774 77.0686L80.3839 77.2218C80.0878 77.7071 79.3501 77.5767 79.2382 77.0194L79.1948 76.8032Z" fill="black"/>
<path d="M129.562 74.9339C129.579 74.7559 129.663 74.5908 129.796 74.4717L129.918 74.3627C133.445 71.2135 138.925 71.8032 141.709 75.6244C141.81 75.7618 141.856 75.9313 141.84 76.1006L141.818 76.3238C141.765 76.8824 141.049 77.0782 140.718 76.6247C138.354 73.3809 133.707 72.8862 130.713 75.5596L130.579 75.6792C130.155 76.0578 129.487 75.7193 129.541 75.1534L129.562 74.9339Z" fill="black"/>
<path d="M114.529 100.288C114.527 100.372 114.493 100.451 114.434 100.51L114.381 100.565C112.833 102.134 110.266 102.021 108.858 100.326C108.808 100.265 108.781 100.187 108.784 100.108L108.787 100.003C108.796 99.7419 109.123 99.6297 109.29 99.831C110.485 101.27 112.662 101.363 113.976 100.031L114.034 99.9717C114.221 99.783 114.541 99.9208 114.533 100.186L114.529 100.288Z" fill="#D2A182"/>
<defs>
<filter id="filter0_f_1306_4608" x="30" y="347" width="169" height="39" filterUnits="userSpaceOnUse" color-interpolation-filters="sRGB">
<feFlood flood-opacity="0" result="BackgroundImageFix"/>
<feBlend mode="normal" in="SourceGraphic" in2="BackgroundImageFix" result="shape"/>
<feGaussianBlur stdDeviation="7.5" result="effect1_foregroundBlur_1306_4608"/>
</filter>
<filter id="filter1_i_1306_4608" x="90.6455" y="107.579" width="42.0181" height="30.5549" filterUnits="userSpaceOnUse" color-interpolation-filters="sRGB">
<feFlood flood-opacity="0" result="BackgroundImageFix"/>
<feBlend mode="normal" in="SourceGraphic" in2="BackgroundImageFix" result="shape"/>
<feColorMatrix in="SourceAlpha" type="matrix" values="0 0 0 0 0 0 0 0 0 0 0 0 0 0 0 0 0 0 127 0" result="hardAlpha"/>
<feOffset dy="-1"/>
<feGaussianBlur stdDeviation="2"/>
<feComposite in2="hardAlpha" operator="arithmetic" k2="-1" k3="1"/>
<feColorMatrix type="matrix" values="0 0 0 0 0 0 0 0 0 0 0 0 0 0 0 0 0 0 0.25 0"/>
<feBlend mode="normal" in2="shape" result="effect1_innerShadow_1306_4608"/>
</filter>
<filter id="filter2_d_1306_4608" x="54.5981" y="31.3093" width="114.291" height="106.813" filterUnits="userSpaceOnUse" color-interpolation-filters="sRGB">
<feFlood flood-opacity="0" result="BackgroundImageFix"/>
<feColorMatrix in="SourceAlpha" type="matrix" values="0 0 0 0 0 0 0 0 0 0 0 0 0 0 0 0 0 0 127 0" result="hardAlpha"/>
<feOffset dy="4"/>
<feGaussianBlur stdDeviation="2"/>
<feComposite in2="hardAlpha" operator="out"/>
<feColorMatrix type="matrix" values="0 0 0 0 0 0 0 0 0 0 0 0 0 0 0 0 0 0 0.25 0"/>
<feBlend mode="normal" in2="BackgroundImageFix" result="effect1_dropShadow_1306_4608"/>
<feBlend mode="normal" in="SourceGraphic" in2="effect1_dropShadow_1306_4608" result="shape"/>
</filter>
</defs>
</svg>
