<svg width="283" height="256" viewBox="0 0 283 256" fill="none" xmlns="http://www.w3.org/2000/svg">
<path d="M112.479 166.911H141.85L138.642 255.783H120.413L112.479 166.911Z" fill="#7C7C7C"/>
<path d="M168.857 166.911H139.486L142.694 255.783H160.923L168.857 166.911Z" fill="#7C7C7C"/>
<path d="M110.812 115.79C110.812 99.3783 124.117 86.0739 140.529 86.0739V86.0739C156.941 86.0739 170.245 99.3783 170.245 115.79V177.445H110.812V115.79Z" fill="#FFEE2F"/>
<g filter="url(#filter0_i_113_410)">
<path d="M156.914 91.3501C156.914 100.4 149.578 107.736 140.529 107.736V107.736C131.479 107.736 124.143 100.4 124.143 91.3501L124.143 84.6847L156.914 84.6847L156.914 91.3501Z" fill="#F9C09B"/>
</g>
<g filter="url(#filter1_d_113_410)">
<path d="M140.112 101.487C107.563 101.487 99.2408 68.0675 99.1482 51.3578L140.112 24.4187L182.048 51.3578C181.632 68.0675 172.661 101.487 140.112 101.487Z" fill="#F9C09B"/>
</g>
<path d="M100.536 64.8274C106.313 59.273 109.794 51.7745 110.812 48.7195C131.364 61.1615 159.367 53.9037 170.8 48.7195C171.022 56.9401 176.91 62.8834 180.243 64.8274C186.075 52.7465 184.594 39.0918 183.02 29.8344C187.019 30.2787 189.963 28.0755 190.935 26.9183C185.936 27.1405 180.243 21.549 178.021 18.7255C181.465 18.5033 185.843 16.4111 187.602 15.3928C172.467 15.1151 168.162 6.08909 136.779 0.534634C111.673 -3.90893 100.675 20.4381 98.3145 33.1671C90.9827 37.1663 96.7408 55.9403 100.536 64.8274Z" fill="black"/>
<path d="M110.674 48.5811C104.231 45.8039 100.213 36.9168 99.0093 33.3064C98.5927 34.1396 98.4539 36.9723 101.231 41.6381C104.008 46.3038 108.683 48.5349 110.674 48.5811Z" fill="#C4C4C4" fill-opacity="0.23"/>
<circle cx="121.505" cy="64.5494" r="2.63837" fill="black"/>
<circle cx="158.164" cy="64.5494" r="2.63837" fill="black"/>
<mask id="mask0_113_410" style="mask-type:alpha" maskUnits="userSpaceOnUse" x="94" y="0" width="97" height="65">
<path d="M100.536 64.8274C106.313 59.273 109.794 51.7745 110.812 48.7195C131.364 61.1615 159.367 53.9037 170.8 48.7195C171.022 56.9401 176.91 62.8834 180.243 64.8274C186.075 52.7465 184.594 39.0918 183.02 29.8344C187.019 30.2787 189.963 28.0755 190.935 26.9183C185.936 27.1405 180.243 21.549 178.021 18.7255C181.465 18.5033 185.843 16.4111 187.602 15.3928C172.467 15.1151 168.162 6.08909 136.779 0.534634C111.673 -3.90893 100.675 20.4381 98.3145 33.1671C90.9827 37.1663 96.7408 55.9403 100.536 64.8274Z" fill="black"/>
</mask>
<g mask="url(#mask0_113_410)">
<ellipse cx="167.565" cy="4.65407" rx="52.073" ry="20.4126" transform="rotate(20.2415 167.565 4.65407)" fill="#C4C4C4" fill-opacity="0.15"/>
</g>
<mask id="mask1_113_410" style="mask-type:alpha" maskUnits="userSpaceOnUse" x="94" y="0" width="97" height="65">
<path d="M100.536 64.8274C106.313 59.273 109.794 51.7745 110.812 48.7195C131.364 61.1615 159.367 53.9037 170.8 48.7195C171.022 56.9401 176.91 62.8834 180.243 64.8274C186.075 52.7465 184.594 39.0918 183.02 29.8344C187.019 30.2787 189.963 28.0755 190.935 26.9183C185.936 27.1405 180.243 21.549 178.021 18.7255C181.465 18.5033 185.843 16.4111 187.602 15.3928C172.467 15.1151 168.162 6.08909 136.779 0.534634C111.673 -3.90893 100.675 20.4381 98.3145 33.1671C90.9827 37.1663 96.7408 55.9403 100.536 64.8274Z" fill="black"/>
</mask>
<g mask="url(#mask1_113_410)">
<ellipse cx="184.089" cy="15.1771" rx="10.97" ry="4.02698" transform="rotate(14.1608 184.089 15.1771)" fill="white" fill-opacity="0.2"/>
</g>
<mask id="mask2_113_410" style="mask-type:alpha" maskUnits="userSpaceOnUse" x="94" y="0" width="97" height="65">
<path d="M100.536 64.8274C106.313 59.273 109.794 51.7745 110.812 48.7195C131.364 61.1615 159.367 53.9037 170.8 48.7195C171.022 56.9401 176.91 62.8834 180.243 64.8274C186.075 52.7465 184.594 39.0918 183.02 29.8344C187.019 30.2787 189.963 28.0755 190.935 26.9183C185.936 27.1405 180.243 21.549 178.021 18.7255C181.465 18.5033 185.843 16.4111 187.602 15.3928C172.467 15.1151 168.162 6.08909 136.779 0.534634C111.673 -3.90893 100.675 20.4381 98.3145 33.1671C90.9827 37.1663 96.7408 55.9403 100.536 64.8274Z" fill="black"/>
</mask>
<g mask="url(#mask2_113_410)">
<ellipse cx="186.075" cy="48.3026" rx="8.05396" ry="13.6084" fill="white" fill-opacity="0.12"/>
</g>
<g filter="url(#filter2_d_113_410)">
<path d="M140.112 101.487C107.563 101.487 99.2408 68.0675 99.1482 51.3578L140.112 24.4187L182.048 51.3578C181.632 68.0675 172.661 101.487 140.112 101.487Z" fill="#F9C09B"/>
</g>
<path d="M100.536 64.8274C106.313 59.273 109.794 51.7745 110.812 48.7195C131.364 61.1615 159.367 53.9037 170.8 48.7195C171.022 56.9401 176.91 62.8834 180.243 64.8274C186.075 52.7465 184.594 39.0918 183.02 29.8344C187.019 30.2787 189.963 28.0755 190.935 26.9183C185.936 27.1405 180.243 21.549 178.021 18.7255C181.465 18.5033 185.843 16.4111 187.602 15.3928C172.467 15.1151 168.162 6.08909 136.779 0.534634C111.673 -3.90893 100.675 20.4381 98.3145 33.1671C90.9827 37.1663 96.7408 55.9403 100.536 64.8274Z" fill="black"/>
<path d="M110.674 48.5811C104.231 45.8039 100.213 36.9168 99.0093 33.3064C98.5927 34.1396 98.4539 36.9723 101.231 41.6381C104.008 46.3038 108.683 48.5349 110.674 48.5811Z" fill="#C4C4C4" fill-opacity="0.23"/>
<circle cx="121.505" cy="64.5494" r="2.63837" fill="black"/>
<circle cx="158.164" cy="64.5494" r="2.63837" fill="black"/>
<mask id="mask3_113_410" style="mask-type:alpha" maskUnits="userSpaceOnUse" x="94" y="0" width="97" height="65">
<path d="M100.536 64.8274C106.313 59.273 109.794 51.7745 110.812 48.7195C131.364 61.1615 159.367 53.9037 170.8 48.7195C171.022 56.9401 176.91 62.8834 180.243 64.8274C186.075 52.7465 184.594 39.0918 183.02 29.8344C187.019 30.2787 189.963 28.0755 190.935 26.9183C185.936 27.1405 180.243 21.549 178.021 18.7255C181.465 18.5033 185.843 16.4111 187.602 15.3928C172.467 15.1151 168.162 6.08909 136.779 0.534634C111.673 -3.90893 100.675 20.4381 98.3145 33.1671C90.9827 37.1663 96.7408 55.9403 100.536 64.8274Z" fill="black"/>
</mask>
<g mask="url(#mask3_113_410)">
<ellipse cx="167.565" cy="4.65407" rx="52.073" ry="20.4126" transform="rotate(20.2415 167.565 4.65407)" fill="#C4C4C4" fill-opacity="0.15"/>
</g>
<mask id="mask4_113_410" style="mask-type:alpha" maskUnits="userSpaceOnUse" x="94" y="0" width="97" height="65">
<path d="M100.536 64.8274C106.313 59.273 109.794 51.7745 110.812 48.7195C131.364 61.1615 159.367 53.9037 170.8 48.7195C171.022 56.9401 176.91 62.8834 180.243 64.8274C186.075 52.7465 184.594 39.0918 183.02 29.8344C187.019 30.2787 189.963 28.0755 190.935 26.9183C185.936 27.1405 180.243 21.549 178.021 18.7255C181.465 18.5033 185.843 16.4111 187.602 15.3928C172.467 15.1151 168.162 6.08909 136.779 0.534634C111.673 -3.90893 100.675 20.4381 98.3145 33.1671C90.9827 37.1663 96.7408 55.9403 100.536 64.8274Z" fill="black"/>
</mask>
<g mask="url(#mask4_113_410)">
<ellipse cx="184.089" cy="15.1771" rx="10.97" ry="4.02698" transform="rotate(14.1608 184.089 15.1771)" fill="white" fill-opacity="0.2"/>
</g>
<mask id="mask5_113_410" style="mask-type:alpha" maskUnits="userSpaceOnUse" x="94" y="0" width="97" height="65">
<path d="M100.536 64.8274C106.313 59.273 109.794 51.7745 110.812 48.7195C131.364 61.1615 159.367 53.9037 170.8 48.7195C171.022 56.9401 176.91 62.8834 180.243 64.8274C186.075 52.7465 184.594 39.0918 183.02 29.8344C187.019 30.2787 189.963 28.0755 190.935 26.9183C185.936 27.1405 180.243 21.549 178.021 18.7255C181.465 18.5033 185.843 16.4111 187.602 15.3928C172.467 15.1151 168.162 6.08909 136.779 0.534634C111.673 -3.90893 100.675 20.4381 98.3145 33.1671C90.9827 37.1663 96.7408 55.9403 100.536 64.8274Z" fill="black"/>
</mask>
<g mask="url(#mask5_113_410)">
<ellipse cx="186.075" cy="48.3026" rx="8.05396" ry="13.6084" fill="white" fill-opacity="0.12"/>
</g>
<path d="M183.715 119.976C177.493 108.658 170.62 100.836 164.968 94.9813L162.746 116.366C165.541 120.412 168.354 120.255 172.606 127.058C173.994 129.28 178.794 135.032 178.577 137.751C177.932 145.808 173.061 153.936 170.832 156.498C167.851 159.926 167.356 167.475 174.827 165.106C178.38 163.98 182.689 158.799 185.798 151.217C189.963 141.062 189.001 129.595 183.715 119.976Z" fill="#FFEE2F"/>
<mask id="mask6_113_410" style="mask-type:alpha" maskUnits="userSpaceOnUse" x="162" y="96" width="27" height="70">
<path d="M183.715 119.977C177.493 108.658 171.453 101.948 165.801 96.0927L162.747 116.366C165.542 120.413 170.576 119.978 174.828 126.781C176.216 129.003 178.517 134.199 178.299 136.918C177.655 144.975 173.061 153.936 170.832 156.499C167.851 159.926 167.357 167.476 174.828 165.107C178.38 163.98 182.689 158.8 185.799 151.217C189.963 141.062 189.002 129.595 183.715 119.977Z" fill="#30094E"/>
</mask>
<g mask="url(#mask6_113_410)">
<path d="M191.213 127.891L176.216 136.084L164.691 152.331L163.441 167.05L188.158 169.828L191.213 127.891Z" fill="#F9C09B"/>
</g>
<path d="M99.7449 127.598C100.571 119.025 109.501 104.626 113.427 98.5906L115.652 146.258C110.006 143.61 98.9186 136.171 99.7449 127.598Z" fill="#FFEE2F"/>
<mask id="mask7_113_410" style="mask-type:alpha" maskUnits="userSpaceOnUse" x="99" y="98" width="17" height="49">
<path d="M99.7449 127.598C100.571 119.025 109.501 104.626 113.427 98.5906L115.652 146.258C110.006 143.61 98.9186 136.171 99.7449 127.598Z" fill="#90DF83"/>
</mask>
<g mask="url(#mask7_113_410)">
<path d="M114.54 127.154C108.16 127.006 102.36 129.071 100.258 130.122C99.2689 130.431 97.4389 132.385 98.0324 137.726C98.6259 143.068 110.274 147.371 116.024 148.855C118.188 141.683 120.92 127.302 114.54 127.154Z" fill="#F9C09B"/>
</g>
<path d="M108.481 120.186C109.035 119.867 109.742 120.052 110.068 120.603L122.877 142.282L120.484 143.663L108.05 121.771C107.734 121.214 107.926 120.507 108.481 120.186V120.186Z" fill="#4D726F"/>
<g filter="url(#filter3_d_113_410)">
<path d="M107.831 119.007C108.097 118.853 108.437 118.919 108.627 119.161L109.485 120.254V120.254C109.314 120.849 108.704 121.201 108.104 121.051V121.051L107.57 119.784C107.449 119.496 107.56 119.163 107.831 119.007V119.007Z" fill="#D3D3D3"/>
</g>
<path d="M124.805 148.437L122.89 142.303L120.497 143.684L124.805 148.437Z" fill="#A9A9A9"/>
<mask id="mask8_113_410" style="mask-type:alpha" maskUnits="userSpaceOnUse" x="120" y="142" width="5" height="7">
<path d="M124.805 148.436L122.889 142.302L120.496 143.684L124.805 148.436Z" fill="#A9A9A9"/>
</mask>
<g mask="url(#mask8_113_410)">
<circle cx="124.34" cy="147.631" r="2.04574" transform="rotate(150 124.34 147.631)" fill="#444444"/>
</g>
<g filter="url(#filter4_d_113_410)">
<path d="M126.363 144.532C126.363 149.497 120.291 150.525 115.337 150.525C110.383 150.525 106.367 147.999 106.367 143.033C106.367 138.068 110.383 134.417 115.337 134.417C120.291 134.417 126.363 139.566 126.363 144.532Z" fill="#F9C09B"/>
</g>
<rect y="150.525" width="282.444" height="26.9391" fill="#775836"/>
<rect x="8.88708" y="177.465" width="264.67" height="78.3178" fill="#474040"/>
<path d="M39.5751 109.006L50.823 84.1502L181.492 149.97L83.5942 149.97L39.5751 109.006Z" fill="white" fill-opacity="0.48"/>
<path d="M29.1611 104.424H32.2161V148.026H29.1611V104.424Z" fill="#474040"/>
<path d="M22.9582 103.189C19.4082 100.589 17.8196 96.0758 18.9584 91.8255V91.8255C20.1129 87.517 23.8268 84.3822 28.2679 83.9676L54.5148 81.517L44.4837 118.954L22.9582 103.189Z" fill="#395C56"/>
<path d="M13.8862 150.526C13.8862 147.611 16.2487 145.249 19.163 145.249H42.2139C45.1282 145.249 47.4907 147.611 47.4907 150.526V150.526H13.8862V150.526Z" fill="#395C56"/>
<rect x="101.091" y="144.971" width="39.9921" height="5.55445" fill="#00C4DF"/>
<rect x="141.083" y="144.971" width="39.9921" height="5.55445" fill="#008FA3"/>
<rect x="104.979" y="141.916" width="36.104" height="3.05495" fill="#C4C4C4"/>
<rect x="141.083" y="141.916" width="36.104" height="3.05495" fill="#ADADAD"/>
<path d="M259.819 149.972L261.059 144.198H232.8L234.863 150.393C235.006 150.823 235.354 151.152 235.791 151.272C239.444 152.269 243.213 152.775 247 152.775H248.134C251.547 152.775 254.937 152.204 258.162 151.086L259.128 150.751C259.479 150.63 259.741 150.334 259.819 149.972Z" fill="#3A3A3A"/>
<path d="M237.467 98.6013L235.703 103.83L218.67 104.897L217.77 104.184C216.061 102.83 214.698 101.089 213.792 99.1051C213.394 98.2338 213.41 97.2299 213.834 96.3711L213.923 96.191C214.467 95.0889 215.64 94.4421 216.863 94.5702L219.311 94.8265C220.36 93.301 222.426 92.876 223.992 93.8637L224.775 94.3571C226.405 92.6799 229.06 92.564 230.829 94.093L231.135 94.3571L231.839 93.9428C233.601 92.9056 235.866 93.4222 237.004 95.1207C237.691 96.1459 237.862 97.4321 237.467 98.6013Z" fill="#F45148"/>
<path d="M267.732 112.059L266.25 113.32C262.926 116.146 258.706 117.698 254.343 117.698C249.347 117.698 244.719 115.073 242.155 110.786L239.245 105.921L237.212 103.323C235.854 101.587 233.91 100.404 231.744 99.9951C229.924 99.6517 228.065 99.5703 226.222 99.7535L223.509 100.023C222.065 100.167 220.719 100.815 219.706 101.854C218.617 102.971 217.911 104.407 217.693 105.952L217.389 108.097L217.026 108.26C215.774 108.823 216.031 110.671 217.389 110.871C218.404 113.041 218.988 115.387 219.109 117.779L219.366 122.837C219.527 126.019 220.198 129.154 221.354 132.123L222.342 134.663C223.361 137.279 224.747 139.736 226.46 141.96C227.492 143.301 228.733 144.466 230.135 145.413L230.287 145.515C232.059 146.711 234.163 147.317 236.3 147.246L256.961 146.562C259.004 146.494 260.998 145.908 262.753 144.859L262.801 144.83C264.021 144.101 265.108 143.169 266.016 142.076C267.452 140.347 268.563 138.372 269.298 136.248L270.387 133.095C270.527 132.691 270.907 132.42 271.335 132.42H272.885C274.444 132.42 275.998 132.242 277.516 131.889C278.79 131.593 279.969 130.984 280.948 130.117L281.129 129.956C281.521 129.608 281.873 129.218 282.178 128.791L282.297 128.625C282.746 127.996 282.917 127.211 282.771 126.453L280.883 116.676C279.711 110.611 272.438 108.057 267.732 112.059Z" fill="#545454"/>
<mask id="mask9_113_410" style="mask-type:alpha" maskUnits="userSpaceOnUse" x="216" y="99" width="67" height="49">
<path d="M267.732 112.06L266.25 113.32C262.926 116.147 258.706 117.698 254.343 117.698C249.347 117.698 244.719 115.074 242.155 110.786L239.245 105.921L237.212 103.323C235.854 101.587 233.91 100.404 231.744 99.9955C229.924 99.652 228.065 99.5707 226.222 99.7538L223.509 100.024C222.065 100.167 220.719 100.815 219.706 101.854C218.617 102.972 217.911 104.407 217.693 105.952L217.389 108.097L217.026 108.261C215.774 108.823 216.031 110.672 217.389 110.871C218.404 113.041 218.988 115.387 219.109 117.779L219.366 122.837C219.527 126.019 220.198 129.154 221.354 132.124L222.342 134.664C223.361 137.28 224.747 139.737 226.46 141.961C227.492 143.301 228.733 144.467 230.135 145.413L230.287 145.515C232.059 146.711 234.163 147.317 236.3 147.247L256.961 146.562C259.004 146.495 260.998 145.909 262.753 144.859L262.801 144.83C264.021 144.101 265.108 143.17 266.016 142.076C267.452 140.347 268.563 138.373 269.298 136.249L270.387 133.096C270.527 132.691 270.907 132.42 271.335 132.42H272.885C274.444 132.42 275.998 132.242 277.516 131.89C278.79 131.594 279.969 130.984 280.948 130.117L281.129 129.956C281.521 129.609 281.873 129.218 282.178 128.792L282.297 128.625C282.746 127.997 282.917 127.212 282.771 126.454L280.883 116.677C279.711 110.611 272.438 108.058 267.732 112.06Z" fill="#484848"/>
</mask>
<g mask="url(#mask9_113_410)">
<path d="M246.126 117.781L246.202 117.571L244.794 85.7375L210.003 86.4203L202.96 108.354L219.394 126.83L219.861 127.517C220.551 128.533 221.584 129.266 222.771 129.583C224.842 130.137 226.97 128.904 227.52 126.831L227.633 126.404L228.556 126.758C230.826 127.629 233.398 126.851 234.805 124.868C236.976 125.464 239.231 124.242 239.917 122.098L240.055 121.667C242.725 121.894 245.214 120.3 246.126 117.781Z" fill="#FBFFD0"/>
</g>
<mask id="mask10_113_410" style="mask-type:alpha" maskUnits="userSpaceOnUse" x="216" y="99" width="31" height="31">
<mask id="mask11_113_410" style="mask-type:alpha" maskUnits="userSpaceOnUse" x="216" y="99" width="67" height="49">
<path d="M267.731 112.06L266.249 113.32C262.925 116.147 258.705 117.699 254.342 117.699C249.346 117.699 244.718 115.074 242.154 110.786L239.244 105.921L237.211 103.323C235.853 101.587 233.909 100.404 231.743 99.9956C229.923 99.6521 228.064 99.5708 226.221 99.754L223.508 100.024C222.064 100.167 220.718 100.815 219.705 101.854C218.616 102.972 217.911 104.407 217.692 105.952L217.388 108.097L217.025 108.261C215.773 108.823 216.03 110.672 217.388 110.871C218.403 113.041 218.987 115.387 219.109 117.78L219.365 122.837C219.526 126.019 220.197 129.155 221.353 132.124L222.342 134.664C223.36 137.28 224.746 139.737 226.459 141.961C227.491 143.301 228.732 144.467 230.134 145.413L230.286 145.515C232.058 146.712 234.162 147.317 236.299 147.247L256.96 146.563C259.004 146.495 260.997 145.909 262.752 144.859L262.8 144.83C264.02 144.101 265.107 143.17 266.015 142.076C267.451 140.347 268.563 138.373 269.297 136.249L270.386 133.096C270.526 132.692 270.907 132.42 271.334 132.42H272.884C274.443 132.42 275.997 132.242 277.515 131.89C278.789 131.594 279.969 130.985 280.947 130.117L281.128 129.956C281.521 129.609 281.872 129.218 282.177 128.792L282.296 128.625C282.745 127.997 282.916 127.212 282.77 126.454L280.882 116.677C279.71 110.611 272.437 108.058 267.731 112.06Z" fill="#484848"/>
</mask>
<g mask="url(#mask11_113_410)">
<path d="M246.126 117.781L246.202 117.571L244.793 85.7377L210.003 86.4204L202.959 108.354L219.394 126.831L219.861 127.517C220.551 128.533 221.584 129.267 222.77 129.583C224.842 130.137 226.969 128.904 227.519 126.831L227.633 126.404L228.556 126.758C230.826 127.629 233.398 126.851 234.804 124.868C236.976 125.464 239.231 124.242 239.917 122.098L240.055 121.667C242.725 121.894 245.214 120.3 246.126 117.781Z" fill="#E7E9D4"/>
</g>
</mask>
<g mask="url(#mask10_113_410)">
<path d="M217.005 111.639L217.427 110.762C217.833 109.917 217.819 108.931 217.389 108.098L211.754 108.78V110.999L217.005 111.639Z" fill="#FFD231"/>
</g>
<path d="M243.116 127.593L241.7 128.03C240.303 128.461 239.159 129.474 238.564 130.81C238.04 131.984 237.971 133.311 238.369 134.533L238.573 135.161C239.168 136.989 240.448 138.516 242.145 139.421L243.875 140.344C245.571 141.25 247.465 141.723 249.388 141.723H251.292C253.8 141.723 256.262 141.045 258.417 139.762L259.062 139.377C260.577 138.475 261.9 137.284 262.956 135.871L265.216 132.847C266.326 131.362 267.057 129.629 267.346 127.797L267.552 126.488C267.751 125.228 267.085 123.989 265.925 123.46L257.413 125.533C254.1 126.34 250.728 126.884 247.329 127.161L243.928 127.437C243.652 127.459 243.38 127.512 243.116 127.593Z" fill="#FBFFD0"/>
<g filter="url(#filter5_i_113_410)">
<path d="M248.329 119.192H257.875C258.649 119.192 259.385 118.855 259.89 118.269C259.996 118.146 259.909 117.955 259.746 117.955H248.329C248.121 117.955 247.926 118.06 247.812 118.234C247.542 118.646 247.837 119.192 248.329 119.192Z" fill="#C4C4C4"/>
</g>
<ellipse cx="220.847" cy="106.305" rx="1.0245" ry="1.02412" fill="black"/>
<defs>
<filter id="filter0_i_113_410" x="124.143" y="83.6847" width="32.7712" height="24.051" filterUnits="userSpaceOnUse" color-interpolation-filters="sRGB">
<feFlood flood-opacity="0" result="BackgroundImageFix"/>
<feBlend mode="normal" in="SourceGraphic" in2="BackgroundImageFix" result="shape"/>
<feColorMatrix in="SourceAlpha" type="matrix" values="0 0 0 0 0 0 0 0 0 0 0 0 0 0 0 0 0 0 127 0" result="hardAlpha"/>
<feOffset dy="-1"/>
<feGaussianBlur stdDeviation="2"/>
<feComposite in2="hardAlpha" operator="arithmetic" k2="-1" k3="1"/>
<feColorMatrix type="matrix" values="0 0 0 0 0 0 0 0 0 0 0 0 0 0 0 0 0 0 0.25 0"/>
<feBlend mode="normal" in2="shape" result="effect1_innerShadow_113_410"/>
</filter>
<filter id="filter1_d_113_410" x="95.1482" y="24.4187" width="90.9003" height="85.0681" filterUnits="userSpaceOnUse" color-interpolation-filters="sRGB">
<feFlood flood-opacity="0" result="BackgroundImageFix"/>
<feColorMatrix in="SourceAlpha" type="matrix" values="0 0 0 0 0 0 0 0 0 0 0 0 0 0 0 0 0 0 127 0" result="hardAlpha"/>
<feOffset dy="4"/>
<feGaussianBlur stdDeviation="2"/>
<feComposite in2="hardAlpha" operator="out"/>
<feColorMatrix type="matrix" values="0 0 0 0 0 0 0 0 0 0 0 0 0 0 0 0 0 0 0.25 0"/>
<feBlend mode="normal" in2="BackgroundImageFix" result="effect1_dropShadow_113_410"/>
<feBlend mode="normal" in="SourceGraphic" in2="effect1_dropShadow_113_410" result="shape"/>
</filter>
<filter id="filter2_d_113_410" x="95.1482" y="24.4187" width="90.9003" height="85.0681" filterUnits="userSpaceOnUse" color-interpolation-filters="sRGB">
<feFlood flood-opacity="0" result="BackgroundImageFix"/>
<feColorMatrix in="SourceAlpha" type="matrix" values="0 0 0 0 0 0 0 0 0 0 0 0 0 0 0 0 0 0 127 0" result="hardAlpha"/>
<feOffset dy="4"/>
<feGaussianBlur stdDeviation="2"/>
<feComposite in2="hardAlpha" operator="out"/>
<feColorMatrix type="matrix" values="0 0 0 0 0 0 0 0 0 0 0 0 0 0 0 0 0 0 0.25 0"/>
<feBlend mode="normal" in2="BackgroundImageFix" result="effect1_dropShadow_113_410"/>
<feBlend mode="normal" in="SourceGraphic" in2="effect1_dropShadow_113_410" result="shape"/>
</filter>
<filter id="filter3_d_113_410" x="107.521" y="117.924" width="1.96338" height="3.16125" filterUnits="userSpaceOnUse" color-interpolation-filters="sRGB">
<feFlood flood-opacity="0" result="BackgroundImageFix"/>
<feColorMatrix in="SourceAlpha" type="matrix" values="0 0 0 0 0 0 0 0 0 0 0 0 0 0 0 0 0 0 127 0" result="hardAlpha"/>
<feOffset dy="-1"/>
<feComposite in2="hardAlpha" operator="out"/>
<feColorMatrix type="matrix" values="0 0 0 0 0 0 0 0 0 0 0 0 0 0 0 0 0 0 0.25 0"/>
<feBlend mode="normal" in2="BackgroundImageFix" result="effect1_dropShadow_113_410"/>
<feBlend mode="normal" in="SourceGraphic" in2="effect1_dropShadow_113_410" result="shape"/>
</filter>
<filter id="filter4_d_113_410" x="102.367" y="129.417" width="27.9961" height="24.1079" filterUnits="userSpaceOnUse" color-interpolation-filters="sRGB">
<feFlood flood-opacity="0" result="BackgroundImageFix"/>
<feColorMatrix in="SourceAlpha" type="matrix" values="0 0 0 0 0 0 0 0 0 0 0 0 0 0 0 0 0 0 127 0" result="hardAlpha"/>
<feOffset dy="-1"/>
<feGaussianBlur stdDeviation="2"/>
<feComposite in2="hardAlpha" operator="out"/>
<feColorMatrix type="matrix" values="0 0 0 0 0 0 0 0 0 0 0 0 0 0 0 0 0 0 0.25 0"/>
<feBlend mode="normal" in2="BackgroundImageFix" result="effect1_dropShadow_113_410"/>
<feBlend mode="normal" in="SourceGraphic" in2="effect1_dropShadow_113_410" result="shape"/>
</filter>
<filter id="filter5_i_113_410" x="247.71" y="117.955" width="12.2271" height="5.23743" filterUnits="userSpaceOnUse" color-interpolation-filters="sRGB">
<feFlood flood-opacity="0" result="BackgroundImageFix"/>
<feBlend mode="normal" in="SourceGraphic" in2="BackgroundImageFix" result="shape"/>
<feColorMatrix in="SourceAlpha" type="matrix" values="0 0 0 0 0 0 0 0 0 0 0 0 0 0 0 0 0 0 127 0" result="hardAlpha"/>
<feOffset dy="4"/>
<feGaussianBlur stdDeviation="2"/>
<feComposite in2="hardAlpha" operator="arithmetic" k2="-1" k3="1"/>
<feColorMatrix type="matrix" values="0 0 0 0 0 0 0 0 0 0 0 0 0 0 0 0 0 0 0.25 0"/>
<feBlend mode="normal" in2="shape" result="effect1_innerShadow_113_410"/>
</filter>
</defs>
</svg>
