<svg width="30" height="30" viewBox="0 0 30 30" fill="none" xmlns="http://www.w3.org/2000/svg">
<path d="M22.7913 2.58333L16.838 1.095C16.5868 1.03206 16.329 1.00016 16.0701 1H9.70823C9.12003 1.00002 8.54346 1.16386 8.04315 1.47317C7.54284 1.78247 7.13857 2.225 6.87564 2.75117L1.33398 13.8345C1.09273 14.3173 0.978874 14.8537 1.00323 15.3929C1.02758 15.932 1.18932 16.456 1.47311 16.9151C1.7569 17.3742 2.15331 17.7531 2.62471 18.0159C3.09611 18.2787 3.62685 18.4166 4.16656 18.4167H11.7096H14.8762M22.7913 2.58333L22.7929 16.8333L17.4222 24.8893C16.7936 25.8314 16.4596 26.9366 16.4596 28.0687C16.4596 28.8588 15.8183 29.5 15.0266 29.5H14.8746C14.0348 29.5 13.2293 29.1664 12.6355 28.5725C12.0416 27.9786 11.708 27.1732 11.708 26.3333V18.4167M22.7913 2.58333H25.9596C26.7994 2.58333 27.6049 2.91696 28.1987 3.51083C28.7926 4.10469 29.1262 4.91015 29.1262 5.75V15.25C29.1262 16.0899 28.7926 16.8953 28.1987 17.4892C27.6049 18.083 26.7994 18.4167 25.9596 18.4167H22.0012" stroke="black" stroke-linecap="round" stroke-linejoin="round"/>
</svg>
