<svg width="56" height="48" viewBox="0 0 56 48" fill="none" xmlns="http://www.w3.org/2000/svg">
<path fill-rule="evenodd" clip-rule="evenodd" d="M4.04045 4.56991C6.62833 1.98281 10.1378 0.529457 13.7971 0.529457C17.4563 0.529457 20.9658 1.98281 23.5537 4.56991L27.597 8.60986L31.6404 4.56991C32.9135 3.25187 34.4362 2.20055 36.1199 1.47731C37.8035 0.754066 39.6144 0.373377 41.4467 0.357455C43.2791 0.341532 45.0962 0.690696 46.7922 1.38457C48.4882 2.07845 50.029 3.10314 51.3247 4.39886C52.6204 5.69458 53.6451 7.23538 54.339 8.93134C55.0329 10.6273 55.382 12.4445 55.3661 14.2768C55.3502 16.1092 54.9695 17.92 54.2462 19.6037C53.523 21.2874 52.4717 22.8101 51.1536 24.0831L27.597 47.6432L4.04045 24.0831C1.45335 21.4952 0 17.9858 0 14.3265C0 10.6672 1.45335 7.15779 4.04045 4.56991Z" fill="#FF4D6D"/>
</svg>
