<svg width="47" height="45" viewBox="0 0 47 45" fill="none" xmlns="http://www.w3.org/2000/svg">
<path d="M0 15.6248C0 15.0725 0.447715 14.6248 1 14.6248H15.1807V44.9998H0V15.6248Z" fill="#5338BC"/>
<path d="M31.4458 22.5H45.6265C46.1788 22.5 46.6265 22.9477 46.6265 23.5V45H31.4458V22.5Z" fill="#5338BC"/>
<path d="M15.1807 1C15.1807 0.447715 15.6284 0 16.1807 0H30.4458C30.9981 0 31.4458 0.447715 31.4458 1V45H15.1807V1Z" fill="#5338BC"/>
<mask id="mask0_50_177" style="mask-type:alpha" maskUnits="userSpaceOnUse" x="0" y="0" width="47" height="45">
<path d="M0 15.6248C0 15.0725 0.447715 14.6248 1 14.6248H15.1807V44.9998H0V15.6248Z" fill="#D1D1D1"/>
<path d="M31.4458 22.5H45.6265C46.1788 22.5 46.6265 22.9477 46.6265 23.5V45H31.4458V22.5Z" fill="#D1D1D1"/>
<path d="M15.1807 1C15.1807 0.447715 15.6284 0 16.1807 0H30.4458C30.9981 0 31.4458 0.447715 31.4458 1V45H15.1807V1Z" fill="#D1D1D1"/>
</mask>
<g mask="url(#mask0_50_177)">
<path d="M-8.4375 48.5156L33.75 -6.32812L56.6891 5.625L22.236 52.0312L-8.4375 48.5156Z" fill="white" fill-opacity="0.2"/>
</g>
<path d="M22.3062 7.3125V6.7925H23.3462V10.4375H22.7712V7.3125H22.3062Z" fill="white"/>
<path d="M7.154 23.7875C7.474 23.5108 7.72567 23.2842 7.909 23.1075C8.09567 22.9275 8.25067 22.7408 8.374 22.5475C8.49733 22.3542 8.559 22.1608 8.559 21.9675C8.559 21.7675 8.51067 21.6108 8.414 21.4975C8.32067 21.3842 8.17233 21.3275 7.969 21.3275C7.77233 21.3275 7.619 21.3908 7.509 21.5175C7.40233 21.6408 7.34567 21.8075 7.339 22.0175H6.789C6.799 21.6375 6.91233 21.3475 7.129 21.1475C7.349 20.9442 7.62733 20.8425 7.964 20.8425C8.32733 20.8425 8.61067 20.9425 8.814 21.1425C9.02067 21.3425 9.124 21.6092 9.124 21.9425C9.124 22.1825 9.06233 22.4142 8.939 22.6375C8.819 22.8575 8.674 23.0558 8.504 23.2325C8.33733 23.4058 8.124 23.6075 7.864 23.8375L7.639 24.0375H9.224V24.5125H6.794V24.0975L7.154 23.7875Z" fill="white"/>
<path d="M37.9133 28.9781C37.9333 28.6681 38.0516 28.4265 38.2683 28.2531C38.4883 28.0798 38.7683 27.9931 39.1083 27.9931C39.3416 27.9931 39.5433 28.0348 39.7133 28.1181C39.8833 28.2015 40.0116 28.3148 40.0983 28.4581C40.185 28.6015 40.2283 28.7631 40.2283 28.9431C40.2283 29.1498 40.1733 29.3265 40.0633 29.4731C39.9533 29.6198 39.8216 29.7181 39.6683 29.7681V29.7881C39.865 29.8481 40.0183 29.9581 40.1283 30.1181C40.2383 30.2748 40.2933 30.4765 40.2933 30.7231C40.2933 30.9198 40.2483 31.0948 40.1583 31.2481C40.0683 31.4015 39.935 31.5231 39.7583 31.6131C39.5816 31.6998 39.37 31.7431 39.1233 31.7431C38.7633 31.7431 38.4666 31.6515 38.2333 31.4681C38.0033 31.2815 37.88 31.0148 37.8633 30.6681H38.4133C38.4266 30.8448 38.495 30.9898 38.6183 31.1031C38.7416 31.2131 38.9083 31.2681 39.1183 31.2681C39.3216 31.2681 39.4783 31.2131 39.5883 31.1031C39.6983 30.9898 39.7533 30.8448 39.7533 30.6681C39.7533 30.4348 39.6783 30.2698 39.5283 30.1731C39.3816 30.0731 39.155 30.0231 38.8483 30.0231H38.7183V29.5531H38.8533C39.1233 29.5498 39.3283 29.5048 39.4683 29.4181C39.6116 29.3315 39.6833 29.1948 39.6833 29.0081C39.6833 28.8481 39.6316 28.7215 39.5283 28.6281C39.425 28.5315 39.2783 28.4831 39.0883 28.4831C38.9016 28.4831 38.7566 28.5315 38.6533 28.6281C38.55 28.7215 38.4883 28.8381 38.4683 28.9781H37.9133Z" fill="white"/>
</svg>
