<svg width="40" height="51" viewBox="0 0 40 51" fill="none" xmlns="http://www.w3.org/2000/svg">
<path d="M3 3H37V27.2816C37 33.089 34.0355 38.4946 29.1385 41.6165C23.5643 45.17 16.4357 45.17 10.8615 41.6165C5.96455 38.4946 3 33.089 3 27.2816V3Z" fill="#C77952" stroke="#793C1E" stroke-width="6"/>
<path d="M25.6572 29.657C24.1569 31.1573 22.122 32.0002 20.0002 32.0002C17.8784 32.0002 15.8435 31.1573 14.3432 29.657C12.8429 28.1567 12 26.1218 12 24C12 21.8782 12.8429 19.8433 14.3432 18.343C14.3432 18.343 15.0002 20 17.0002 21C17.0002 19 17.5002 16 19.9862 14C22.0002 16 24.0902 16.777 25.6562 18.343C26.4004 19.085 26.9905 19.9667 27.3928 20.9376C27.795 21.9084 28.0015 22.9491 28.0002 24C28.0016 25.0508 27.7953 26.0915 27.3932 27.0623C26.9912 28.0331 26.4012 28.9149 25.6572 29.657Z" stroke="#793C1E" stroke-width="2" stroke-linecap="round" stroke-linejoin="round"/>
<path d="M17.879 27.121C18.2274 27.4695 18.6563 27.7268 19.1277 27.8702C19.5991 28.0135 20.0986 28.0386 20.5821 27.9431C21.0655 27.8476 21.5179 27.6345 21.8994 27.3226C22.2809 27.0107 22.5797 26.6096 22.7694 26.1548C22.9591 25.7001 23.0338 25.2056 22.987 24.715C22.9402 24.2245 22.7733 23.753 22.5011 23.3423C22.2288 22.9316 21.8595 22.5943 21.4259 22.3602C20.9923 22.1261 20.5078 22.0024 20.015 22L19 25H17C17 25.768 17.293 26.536 17.879 27.121Z" stroke="#793C1E" stroke-width="2" stroke-linecap="round" stroke-linejoin="round"/>
</svg>
