<svg width="40" height="51" viewBox="0 0 40 51" fill="none" xmlns="http://www.w3.org/2000/svg">
<path d="M3 3H37V27.2816C37 33.089 34.0355 38.4946 29.1385 41.6165C23.5643 45.17 16.4357 45.17 10.8615 41.6165C5.96455 38.4946 3 33.089 3 27.2816V3Z" fill="#FFC700" stroke="#7C6100" stroke-width="6"/>
<path d="M25.657 29.657C24.1566 31.1573 22.1217 32.0002 20 32.0002C17.8782 32.0002 15.8433 31.1573 14.343 29.657C12.8426 28.1567 11.9998 26.1218 11.9998 24C11.9998 21.8782 12.8426 19.8433 14.343 18.343C14.343 18.343 15 20 17 21C17 19 17.5 16 19.986 14C22 16 24.09 16.777 25.656 18.343C26.4001 19.085 26.9903 19.9667 27.3925 20.9376C27.7948 21.9084 28.0012 22.9491 28 24C28.0014 25.0508 27.7951 26.0915 27.393 27.0623C26.9909 28.0331 26.4009 28.9149 25.657 29.657Z" stroke="#7C6100" stroke-width="2" stroke-linecap="round" stroke-linejoin="round"/>
<path d="M17.879 27.121C18.2274 27.4695 18.6563 27.7268 19.1277 27.8702C19.5991 28.0135 20.0986 28.0386 20.5821 27.9431C21.0655 27.8476 21.5179 27.6345 21.8994 27.3226C22.2809 27.0107 22.5797 26.6096 22.7694 26.1548C22.9591 25.7001 23.0338 25.2056 22.987 24.715C22.9402 24.2245 22.7733 23.753 22.5011 23.3423C22.2288 22.9316 21.8595 22.5943 21.4259 22.3602C20.9923 22.1261 20.5078 22.0024 20.015 22L19 25H17C17 25.768 17.293 26.536 17.879 27.121Z" stroke="#7C6100" stroke-width="2" stroke-linecap="round" stroke-linejoin="round"/>
</svg>
