<svg width="30" height="30" viewBox="0 0 30 30" fill="none" xmlns="http://www.w3.org/2000/svg">
<path d="M18.1667 12.0833H25.7097C26.2494 12.0834 26.7801 12.2213 27.2515 12.4841C27.7229 12.7469 28.1193 13.1258 28.4031 13.5849C28.6869 14.044 28.8486 14.568 28.873 15.1071C28.8974 15.6463 28.7835 16.1827 28.5422 16.6655L23.0006 27.7488C22.7375 28.2752 22.333 28.7179 21.8324 29.0273C21.3318 29.3366 20.7549 29.5003 20.1664 29.5H13.8062C13.5481 29.5 13.29 29.4683 13.0382 29.405L7.08333 27.9167M18.1667 12.0833V4.16667C18.1667 3.32681 17.833 2.52136 17.2392 1.9275C16.6453 1.33363 15.8399 1 15 1H14.8496C14.0579 1 13.4167 1.64125 13.4167 2.43292C13.4167 3.56342 13.0826 4.66858 12.454 5.60908L7.08333 13.6667V27.9167M18.1667 12.0833H15M7.08333 27.9167H3.91667C3.07681 27.9167 2.27136 27.583 1.67749 26.9892C1.08363 26.3953 0.75 25.5899 0.75 24.75V15.25C0.75 14.4101 1.08363 13.6047 1.67749 13.0108C2.27136 12.417 3.07681 12.0833 3.91667 12.0833H7.875" stroke="black" stroke-linecap="round" stroke-linejoin="round"/>
</svg>
