<svg width="28" height="36" viewBox="0 0 28 36" fill="none" xmlns="http://www.w3.org/2000/svg">
<path d="M4 18H28L18 27L4 36V18Z" fill="#98612E"/>
<path d="M24 18H0L10 27L24 36V18Z" fill="#98612E"/>
<circle cx="14" cy="17" r="14" fill="#B7763A"/>
<path d="M8.32 13.112C8.4 11.512 8.96 10.28 10 9.416C11.056 8.536 12.44 8.096 14.152 8.096C15.32 8.096 16.32 8.304 17.152 8.72C17.984 9.12 18.608 9.672 19.024 10.376C19.456 11.064 19.672 11.848 19.672 12.728C19.672 13.736 19.408 14.592 18.88 15.296C18.368 15.984 17.752 16.448 17.032 16.688V16.784C17.96 17.072 18.68 17.584 19.192 18.32C19.72 19.056 19.984 20 19.984 21.152C19.984 22.112 19.76 22.968 19.312 23.72C18.88 24.472 18.232 25.064 17.368 25.496C16.52 25.912 15.496 26.12 14.296 26.12C12.488 26.12 11.016 25.664 9.88 24.752C8.744 23.84 8.144 22.496 8.08 20.72H11.344C11.376 21.504 11.64 22.136 12.136 22.616C12.648 23.08 13.344 23.312 14.224 23.312C15.04 23.312 15.664 23.088 16.096 22.64C16.544 22.176 16.768 21.584 16.768 20.864C16.768 19.904 16.464 19.216 15.856 18.8C15.248 18.384 14.304 18.176 13.024 18.176H12.328V15.416H13.024C15.296 15.416 16.432 14.656 16.432 13.136C16.432 12.448 16.224 11.912 15.808 11.528C15.408 11.144 14.824 10.952 14.056 10.952C13.304 10.952 12.72 11.16 12.304 11.576C11.904 11.976 11.672 12.488 11.608 13.112H8.32Z" fill="white"/>
</svg>
