<svg width="28" height="36" viewBox="0 0 28 36" fill="none" xmlns="http://www.w3.org/2000/svg">
<path d="M4 18H28L18 27L4 36V18Z" fill="#D1D1D1"/>
<path d="M24 18H0L10 27L24 36V18Z" fill="#D1D1D1"/>
<circle cx="14" cy="17" r="14" fill="#D1D1D1"/>
<path d="M9.328 22.208C10.864 20.928 12.088 19.864 13 19.016C13.912 18.152 14.672 17.256 15.28 16.328C15.888 15.4 16.192 14.488 16.192 13.592C16.192 12.776 16 12.136 15.616 11.672C15.232 11.208 14.64 10.976 13.84 10.976C13.04 10.976 12.424 11.248 11.992 11.792C11.56 12.32 11.336 13.048 11.32 13.976H8.056C8.12 12.056 8.688 10.6 9.76 9.608C10.848 8.616 12.224 8.12 13.888 8.12C15.712 8.12 17.112 8.608 18.088 9.584C19.064 10.544 19.552 11.816 19.552 13.4C19.552 14.648 19.216 15.84 18.544 16.976C17.872 18.112 17.104 19.104 16.24 19.952C15.376 20.784 14.248 21.792 12.856 22.976H19.936V25.76H8.08V23.264L9.328 22.208Z" fill="white"/>
</svg>
