<svg width="38" height="38" viewBox="0 0 38 38" fill="none" xmlns="http://www.w3.org/2000/svg">
<path d="M13.7496 21.1249C14.0695 20.4852 14.25 19.7632 14.25 19.0001C14.25 18.2369 14.0695 17.5149 13.7496 16.8752M13.7496 21.1249C13.271 22.0819 12.4833 22.8492 11.5141 23.3026C10.545 23.756 9.4511 23.8688 8.40977 23.6229C7.36843 23.377 6.44062 22.7868 5.77664 21.9477C5.11266 21.1087 4.7514 20.0701 4.7514 19.0001C4.7514 17.9301 5.11266 16.8915 5.77664 16.0524C6.44062 15.2134 7.36843 14.6231 8.40977 14.3772C9.4511 14.1313 10.545 14.2442 11.5141 14.6976C12.4833 15.151 13.271 15.9183 13.7496 16.8752M13.7496 21.1249L24.2503 26.3752M13.7496 16.8752L24.2503 11.6249M24.2503 26.3752C23.6868 27.5023 23.594 28.8071 23.9925 30.0026C24.391 31.198 25.2481 32.1862 26.3752 32.7497C27.5022 33.3133 28.807 33.406 30.0025 33.0075C31.1979 32.609 32.1861 31.752 32.7496 30.6249C33.3132 29.4978 33.4059 28.193 33.0074 26.9976C32.6089 25.8021 31.7519 24.814 30.6248 24.2504C30.0667 23.9714 29.4592 23.805 28.8368 23.7608C28.2144 23.7165 27.5894 23.7953 26.9975 23.9926C25.802 24.3911 24.8139 25.2482 24.2503 26.3752ZM24.2503 11.6249C24.5294 12.1829 24.9156 12.6804 25.3869 13.0891C25.8582 13.4979 26.4054 13.8097 26.9973 14.007C27.5891 14.2042 28.214 14.2829 28.8363 14.2387C29.4586 14.1944 30.0661 14.028 30.624 13.749C31.182 13.4699 31.6795 13.0837 32.0883 12.6124C32.497 12.1411 32.8088 11.5939 33.0061 11.002C33.2033 10.4102 33.282 9.78524 33.2378 9.16296C33.1935 8.54068 33.0271 7.93322 32.7481 7.37525C32.1845 6.24837 31.1964 5.39152 30.0011 4.99319C28.8058 4.59485 27.5012 4.68766 26.3744 5.2512C25.2475 5.81475 24.3906 6.80285 23.9923 7.99816C23.594 9.19346 23.6868 10.498 24.2503 11.6249Z" stroke="black" stroke-linecap="round" stroke-linejoin="round"/>
</svg>
