<svg width="30" height="30" viewBox="0 0 30 30" fill="none" xmlns="http://www.w3.org/2000/svg">
<path d="M9.74965 17.3754C10.0695 16.7357 10.25 16.0137 10.25 15.2506C10.25 14.4874 10.0695 13.7654 9.74965 13.1257M9.74965 17.3754C9.27101 18.3324 8.4833 19.0997 7.51413 19.5531C6.54496 20.0064 5.4511 20.1193 4.40977 19.8734C3.36843 19.6275 2.44062 19.0372 1.77664 18.1982C1.11266 17.3592 0.751404 16.3205 0.751404 15.2506C0.751404 14.1806 1.11266 13.142 1.77664 12.3029C2.44062 11.4639 3.36843 10.8736 4.40977 10.6277C5.4511 10.3818 6.54496 10.4947 7.51413 10.9481C8.4833 11.4015 9.27101 12.1688 9.74965 13.1257M9.74965 17.3754L20.2503 22.6257M9.74965 13.1257L20.2503 7.8754M20.2503 22.6257C19.6868 23.7528 19.594 25.0576 19.9925 26.2531C20.391 27.4485 21.2481 28.4367 22.3752 29.0002C23.5022 29.5638 24.807 29.6565 26.0025 29.258C27.1979 28.8595 28.1861 28.0025 28.7496 26.8754C29.3132 25.7483 29.4059 24.4435 29.0074 23.2481C28.6089 22.0526 27.7519 21.0644 26.6248 20.5009C26.0667 20.2219 25.4592 20.0555 24.8368 20.0112C24.2144 19.967 23.5894 20.0458 22.9975 20.2431C21.802 20.6416 20.8139 21.4987 20.2503 22.6257ZM20.2503 7.8754C20.5294 8.43337 20.9156 8.93092 21.3869 9.33963C21.8582 9.74835 22.4054 10.0602 22.9973 10.2575C23.5891 10.4547 24.214 10.5334 24.8363 10.4892C25.4586 10.4449 26.0661 10.2785 26.624 9.99944C27.182 9.72041 27.6795 9.3342 28.0883 8.86288C28.497 8.39156 28.8088 7.84435 29.0061 7.25249C29.2033 6.66064 29.282 6.03573 29.2378 5.41345C29.1935 4.79117 29.0271 4.1837 28.7481 3.62573C28.1845 2.49886 27.1964 1.64201 26.0011 1.24368C24.8058 0.845341 23.5012 0.938152 22.3744 1.50169C21.2475 2.06523 20.3906 3.05334 19.9923 4.24864C19.594 5.44395 19.6868 6.74853 20.2503 7.8754Z" stroke="black" stroke-linecap="round" stroke-linejoin="round"/>
</svg>
