<svg width="38" height="38" viewBox="0 0 38 38" fill="none" xmlns="http://www.w3.org/2000/svg">
<path d="M22.1667 15.8333H29.7097C30.2494 15.8334 30.7801 15.9713 31.2515 16.2341C31.7229 16.4969 32.1193 16.8758 32.4031 17.3349C32.6869 17.794 32.8486 18.318 32.873 18.8571C32.8974 19.3963 32.7835 19.9327 32.5422 20.4155L27.0006 31.4988C26.7375 32.0252 26.333 32.4679 25.8324 32.7773C25.3318 33.0866 24.7549 33.2503 24.1664 33.25H17.8062C17.5481 33.25 17.29 33.2183 17.0382 33.155L11.0833 31.6667M22.1667 15.8333V7.91667C22.1667 7.07681 21.833 6.27136 21.2392 5.6775C20.6453 5.08363 19.8399 4.75 19 4.75H18.8496C18.0579 4.75 17.4167 5.39125 17.4167 6.18292C17.4167 7.31342 17.0826 8.41858 16.454 9.35908L11.0833 17.4167V31.6667M22.1667 15.8333H19M11.0833 31.6667H7.91667C7.07681 31.6667 6.27136 31.333 5.67749 30.7392C5.08363 30.1453 4.75 29.3399 4.75 28.5V19C4.75 18.1601 5.08363 17.3547 5.67749 16.7608C6.27136 16.167 7.07681 15.8333 7.91667 15.8333H11.875" stroke="black" stroke-linecap="round" stroke-linejoin="round"/>
</svg>
