<svg width="38" height="38" viewBox="0 0 38 38" fill="none" xmlns="http://www.w3.org/2000/svg">
<path d="M26.9151 6.33333L20.9618 4.845C20.7106 4.78206 20.4527 4.75016 20.1938 4.75H13.832C13.2438 4.75002 12.6672 4.91386 12.1669 5.22317C11.6666 5.53247 11.2623 5.975 10.9994 6.50117L5.45776 17.5845C5.21651 18.0673 5.10265 18.6037 5.127 19.1429C5.15136 19.682 5.3131 20.206 5.59689 20.6651C5.88068 21.1242 6.27709 21.5031 6.74849 21.7659C7.21989 22.0287 7.75063 22.1666 8.29034 22.1667H15.8333H19M26.9151 6.33333L26.9167 20.5833L21.546 28.6393C20.9174 29.5814 20.5833 30.6866 20.5833 31.8187C20.5833 32.6088 19.9421 33.25 19.1504 33.25H18.9984C18.1586 33.25 17.3531 32.9164 16.7592 32.3225C16.1654 31.7286 15.8318 30.9232 15.8318 30.0833V22.1667M26.9151 6.33333H30.0833C30.9232 6.33333 31.7286 6.66696 32.3225 7.26083C32.9164 7.85469 33.25 8.66015 33.25 9.5V19C33.25 19.8399 32.9164 20.6453 32.3225 21.2392C31.7286 21.833 30.9232 22.1667 30.0833 22.1667H26.125" stroke="black" stroke-linecap="round" stroke-linejoin="round"/>
</svg>
