<svg width="30" height="30" viewBox="0 0 30 30" fill="none" xmlns="http://www.w3.org/2000/svg">
<path d="M16.8333 21.5833H15.25V15.25H13.6667M15.25 8.91667H15.2658M29.5 15.25C29.5 17.1213 29.1314 18.9743 28.4153 20.7032C27.6992 22.4321 26.6495 24.003 25.3263 25.3263C24.003 26.6495 22.4321 27.6992 20.7032 28.4153C18.9743 29.1314 17.1213 29.5 15.25 29.5C13.3787 29.5 11.5257 29.1314 9.79676 28.4153C8.06787 27.6992 6.49696 26.6495 5.17373 25.3263C3.85049 24.003 2.80085 22.4321 2.08472 20.7032C1.36859 18.9743 1 17.1213 1 15.25C1 11.4707 2.50133 7.84612 5.17373 5.17373C7.84612 2.50134 11.4707 1 15.25 1C19.0293 1 22.6539 2.50134 25.3263 5.17373C27.9987 7.84612 29.5 11.4707 29.5 15.25Z" stroke="black" stroke-linecap="round" stroke-linejoin="round"/>
</svg>
