<svg width="38" height="38" viewBox="0 0 38 38" fill="none" xmlns="http://www.w3.org/2000/svg">
<path d="M20.5833 25.3333H19V19H17.4167M19 12.6667H19.0158M33.25 19C33.25 20.8713 32.8814 22.7243 32.1653 24.4532C31.4492 26.1821 30.3995 27.753 29.0763 29.0763C27.753 30.3995 26.1821 31.4492 24.4532 32.1653C22.7243 32.8814 20.8713 33.25 19 33.25C17.1287 33.25 15.2757 32.8814 13.5468 32.1653C11.8179 31.4492 10.247 30.3995 8.92373 29.0763C7.60049 27.753 6.55085 26.1821 5.83472 24.4532C5.11859 22.7243 4.75 20.8713 4.75 19C4.75 15.2207 6.25133 11.5961 8.92373 8.92373C11.5961 6.25134 15.2207 4.75 19 4.75C22.7793 4.75 26.4039 6.25134 29.0763 8.92373C31.7487 11.5961 33.25 15.2207 33.25 19Z" stroke="black" stroke-linecap="round" stroke-linejoin="round"/>
</svg>
