<svg width="94" height="94" viewBox="0 0 94 94" fill="none" xmlns="http://www.w3.org/2000/svg">
<path d="M36.8333 57.1667L47 47ZM47 47L57.1667 36.8333ZM47 47L36.8333 36.8333ZM47 47L57.1667 57.1667ZM92.75 47C92.75 53.008 91.5666 58.9571 89.2675 64.5078C86.9683 70.0584 83.5984 75.1018 79.3501 79.3501C75.1018 83.5984 70.0584 86.9683 64.5078 89.2675C58.9571 91.5666 53.008 92.75 47 92.75C40.992 92.75 35.0429 91.5666 29.4922 89.2675C23.9416 86.9683 18.8981 83.5984 14.6499 79.3501C10.4016 75.1018 7.03166 70.0584 4.73251 64.5078C2.43336 58.9571 1.25 53.008 1.25 47C1.25 34.8663 6.07007 23.2297 14.6499 14.6499C23.2297 6.07008 34.8663 1.25 47 1.25C59.1337 1.25 70.7703 6.07008 79.3501 14.6499C87.9299 23.2297 92.75 34.8663 92.75 47Z" fill="#CC3E57"/>
<path d="M36.8333 57.1667L47 47M47 47L57.1667 36.8333M47 47L36.8333 36.8333M47 47L57.1667 57.1667M92.75 47C92.75 53.008 91.5666 58.9571 89.2675 64.5078C86.9683 70.0584 83.5984 75.1018 79.3501 79.3501C75.1018 83.5984 70.0584 86.9683 64.5078 89.2675C58.9571 91.5666 53.008 92.75 47 92.75C40.992 92.75 35.0429 91.5666 29.4922 89.2675C23.9416 86.9683 18.8981 83.5984 14.6499 79.3501C10.4016 75.1018 7.03166 70.0584 4.73251 64.5078C2.43336 58.9571 1.25 53.008 1.25 47C1.25 34.8663 6.07007 23.2297 14.6499 14.6499C23.2297 6.07008 34.8663 1.25 47 1.25C59.1337 1.25 70.7703 6.07008 79.3501 14.6499C87.9299 23.2297 92.75 34.8663 92.75 47Z" stroke="white" stroke-width="2" stroke-linecap="round" stroke-linejoin="round"/>
</svg>
