<svg width="343" height="157" viewBox="0 0 343 157" fill="none" xmlns="http://www.w3.org/2000/svg">
<rect width="343" height="157" rx="6" fill="#725CC8"/>
<mask id="mask0_84_163" style="mask-type:alpha" maskUnits="userSpaceOnUse" x="0" y="0" width="343" height="157">
<rect width="343" height="157" rx="6" fill="#725CC8"/>
</mask>
<g mask="url(#mask0_84_163)">
<circle cx="-0.5" cy="126.5" r="12.5" fill="white" fill-opacity="0.1"/>
<circle cx="68" cy="14" r="20" fill="white" fill-opacity="0.1"/>
<circle cx="77" cy="87" r="9" fill="white" fill-opacity="0.1"/>
<circle cx="184.5" cy="148.5" r="26.5" fill="white" fill-opacity="0.1"/>
<circle cx="327.5" cy="-4.5" r="38.5" fill="white" fill-opacity="0.1"/>
</g>
<path d="M243 119C243 84.7583 270.758 57 305 57H343V151C343 154.314 340.314 157 337 157H243V119Z" fill="#B5A9E2"/>
<path d="M234.144 89.1838C273.755 88.6614 307.043 101.118 317.439 107.575L315.149 136.507C283.223 111.352 248.912 108.065 231.335 109.642C229.811 109.779 228.288 109.421 227.02 108.565C221.377 104.757 221.328 96.4662 226.925 92.5916L229.843 90.5724C231.108 89.6967 232.606 89.204 234.144 89.1838Z" fill="#F9C09B"/>
<path d="M312.429 136.944L313.407 104C330.884 107.622 340.554 114.282 343 117.294L343 151C343 154.314 340.314 157 337 157L324.154 157C323.531 147.919 317.944 140.512 312.429 136.944Z" fill="#6A8BFF"/>
<path d="M247.42 89.4722C251.836 89.4722 257.367 90.0471 259.034 90.507C261.38 96.4863 258.919 106.567 257.942 110.917C256.332 111.331 249.299 110.323 245.983 109.767C248.191 101.902 247.823 92.9409 247.42 89.4722Z" fill="#444444"/>
<circle cx="8.73895" cy="8.73895" r="8.73895" transform="matrix(-1 0 0 1 262.426 91.4844)" fill="#828282"/>
<circle cx="6.6692" cy="6.6692" r="6.6692" transform="matrix(-1 0 0 1 260.356 93.5542)" fill="white"/>
<circle cx="0.344958" cy="0.344958" r="0.344958" transform="matrix(-1 0 0 1 254.032 99.8784)" fill="white"/>
<path d="M253.687 100.166L254.78 96.199" stroke="white"/>
<path d="M253.803 100.223L248.283 98.7285" stroke="white"/>
<path d="M254.952 96.3138L254.837 96.0264L254.55 96.1988" stroke="white"/>
<path d="M248.398 98.4985L248.053 98.6628L248.26 99.0735" stroke="white"/>
<circle cx="206" cy="22" r="5" fill="white" fill-opacity="0.1"/>
</svg>
